<mxfile host="65bd71144e">
    <diagram id="kGbMjeVPPOnMKZd3NJ5f" name="ページ1">
        <mxGraphModel dx="1216" dy="768" grid="1" gridSize="10" guides="1" tooltips="1" connect="1" arrows="1" fold="1" page="1" pageScale="1" pageWidth="827" pageHeight="1169" math="0" shadow="0">
            <root>
                <mxCell id="0"/>
                <mxCell id="1" parent="0"/>
                <mxCell id="3" value="各マシンの容量は１&lt;br&gt;マシン間のバッファサイズは無制限&lt;br&gt;各ジョブ・オペレーションは互いに独立していて、優先順位はない&lt;br&gt;" style="text;html=1;strokeColor=none;fillColor=none;align=left;verticalAlign=top;whiteSpace=wrap;rounded=0;" vertex="1" parent="1">
                    <mxGeometry x="10" y="10" width="610" height="30" as="geometry"/>
                </mxCell>
                <mxCell id="4" value="" style="shape=image;verticalLabelPosition=bottom;labelBackgroundColor=default;verticalAlign=top;aspect=fixed;imageAspect=0;image=data:image/png,iVBORw0KGgoAAAANSUhEUgAAAqQAAAGUCAYAAADj1DCZAAAAAXNSR0IArs4c6QAAAARnQU1BAACxjwv8YQUAAAAJcEhZcwAADsMAAA7DAcdvqGQAAOz7SURBVHhe7J0HvBTluf/Hf3KTm2u8N7bYjR1sEQtYUBQFQZoiHUF6U5qKIiIGEVCaBRFFkaaA0gSCioAVRBE0KqgoxRIUBVSMLWqS+c/3Yd7DsOyeMzNnZ3Z39vnCfs7O7Ozs7uzsO7/3qXvYDpaiKIqiKIqi5Ij/5/5VFEVRFEVRlJygglRRFEVRFEXJKSpIFUVRFEVRlJyiglRRFEVRFEXJKSpIFUVRFEVRlJyiglRRFEVRFEXJKSpIFUVRFEVRlJxSah3SDz74wBoxYoS7ZFnHHHOMde2111qdO3e2brnlFuvII490H/HHv//9b2vRokXWYYcdZp100knu2vSsW7fOmj9/vrXHHntY//d//2c1a9bM+v3vf+8+upO3337bmjRpkjVy5Ejr//0///qafb/33ntW37593TW78tFHH1mPPvqoVadOHeu0006zbr31Vqt9+/by3nNJae/7H//4hzV16lRr7733tpo3b+6utay///3v1sSJE2Xdcccd567NDp999pnsu27dulalSpXctYqi+GHbtm3Whg0b5Hf05ZdfWm+++aasM8My4yTj5h/+8Afrv//7v63/+q//Knnsp59+sn7++Wfrm2++sX7zm99Ye+21l2zDOPif//xHtmOb77//3vrnP/8p4+fvfvc72ZZxFdg3j23fvl2WeR0e53WAffzrX/+SfTC+/M///I/s57e//a31q1/9Sp4PP/74o/Xdd9/Jvhh/eJwb8F68r8PzeB1ew3webr/88ovsgxuvwY1tf/3rX8s+uPF52Qfb7rvvvvJezefhNbjxmTmW7Jv3wvPN5+GzcPv222+tH374wfrf//1f+Uxsw2uZ98E2X331lSzvs88+8ho8zrE1r8Pn+frrr+WY83nM4/w1+/C+zp577imPeV+HG6/D+zffMfsw3yGf97nnnrOqV68ur8l6tjvkkEOsY489NufXI0XJJqUK0hdffNG64IILrN69e8vgcPjhh1tt27YNJUjXrl1r1a9f3/rwww+t66+/3rr99tvdR3aHAen000+33njjDfkBNmrUyBo1apR1/PHHu1vshB89AxM/an7oflm5cqXVs2dP65VXXnHX7M5ll11mderUScTWwoULrapVq8qgn0vKet9333239emnn+4ykYDzzz/fGj58uHXmmWe6a7IHx4f3VKtWLXeNoiiZYAxcsGCBtXr1ahErJ554oggMxBO/XcQUYgQxU7FiRREiCBpElREzYEQP4yWPIaz4a8QmsA1iEZHG4wgrxBewHa/DNuwDGOe94gzYBvHFNghabuZ1eMyIK/M6vFcjAr3bIK74TOyb12FsZzvzOkbkIX4Rb7wOz2c7tuHGNuyD10OY8XzzeXgdbhwTRCuvz3jN8821wWzDcef98j4QzmYbXoPnsw2vw18jNs174T2Yz4NI5/nm83BjO7bhxmuY10Fs8ph5HbMNEwqexza8Z2Ab81leeukluQayLctsv2XLFjGacLz+9Kc/Wa1atbIOOuggea6iFCzODyMjL7zwAiOF/fnnn7trbNv5AdgDBw60169fL8uvv/663adPH3vu3Ln2PffcY7/33nuyPhX24cz07HPPPde+8cYb3bXp2bRpk+3MSu3NmzfL8vvvv2+vWrVK7sO2bdtsZ9B2l2x7v/32s50Byv773/8ufw3OD1jepzMguGt2wP6di4F91llnyWPsj+c5A27JfXB+5LZz4ZD7rHMGypL7zmBlO7PjknUG3nPq6xmcwcR2BhN5HUdAyzq2dQYXuW/YunWr/dlnn7lLO/G+bwPH4ZNPPnGXbHv8+PHyfaRSu3Zt+9VXX7W/+OKLXd6fOUa8Jy8ff/yxfNeG1NcB8zkaN25sO4LdXasoSjpee+0125mM2x06dLCnTJlir1u3zn1EUcLB9ebBBx+0L774Yvvmm2/e7XqkKIWELx+3Izatxx9/3HJEoczIHEFqOSJGXE3nnHOO/B07dqx13XXXyew/HQcccIC4HfyAteCiiy6yTj31VGv27NniZsZiCrjmHWFlDR482BoyZIisA14fC6AjeGUZVwrbsC1WQdzWzIqx5OEemzZtmmzniEuxHr788svyHEfsWW+99ZY8ZnDEmbwXrJJYYqtVq2b169dPrLZYN4xFA2sqn98Rf+Le9x4LZuysv+GGG6z777/fOvvss+XvuHHjxPKKtQSwHjsTAWvx4sWWI/RkRpzufYNzUbOef/55q3///pYzGLlrM0NoA9/d0UcfLZ+R98xrcAwIiSBEg3XsC2vITTfdJM9L9zpz5syR9YQPOBdaWacoyu5gaeO388QTT1gtWrSwnEmj1bp1awmBUpTycOCBB8p155lnnpFrF15I7itKIeJLkCI8HnjgAWvp0qXumh0gjnBnIE4eeeQREU+4HrIBArhPnz4ycHfo0EH2jWjEXYGLeMCAASXiE7p27WqNHj1aROCPP/5o3XXXXSXuD1waTz31lIhW4hwrV64sAgxw6ZjQg0MPPVRuqfB8E3tJPNHJJ58sIvK2224TQYq4I+aV+C+EJgPEfvvtt0tIA8eJWFRiwvhchAPg3urVq5e8Fz4bt3feeUdE4pVXXimxZI899lja981ndGbGMkFgv1zsEJOlwX7ZF8cTYY8QrVevnsQiMbAhuLl4Pvnkk+JeYoKR7nVYN2jQIKtbt24yIWG9oii7w+SyTZs28jsbOnSoTGwVJQq4Lj777LPW66+/LuO7ohQavtQjghML2TXXXOOu2QGCyQg44n2yBfsl1gZBhFUWETR58mTrb3/7m8TRAPFWWDYNJkaIOCliexB2XASuuOIKSQTq0qWL7AthCCbuyC9eoW3ihIDPjbBDfCIwEaZYjGvWrCmPe0l9nrmP+ENoY6E07w+w7GKJTve+WY/Vmc9HjC+ft6zJADFKgGjevHlzSezTvHnzJO4L0UkCGVZatmFSkO51sBh7xW/QY6koxQDjFgKB8ZPfk6LEAZ6tI444QryLilJIlMucicUOqyCD7syZM921lvXJJ5+ISxuhFoZZs2ZZ7777rtw/4YQTRHjiKkf08SND+MGyZcvkr+0GvHvvk31IljwgYklK4vkrVqwoWWdEFWIWEQv8TWdpTH0Ng7lPsgBCDkGKtTadIE3Fux/AesL7M6+Pq54LWbr3TQA71pfPP/9c1jMrNvfLYuvWrRISwXOwfF9++eUiink/mzZtkkQ2rL6EEyA2U1+Hz4olmlAF8B5LRVEscZsykcSLoihxgzeMMdsb1qYo+U65BCnxUO3atbNatmwppSkAyx8i9c4775RMwDAgwHB7YxUdM2aMCDMy+ynBhOuazFNem+x6MvERq1hw16xZI2LLWHOxUBDvyfvDrdyjRw9x3WPpQ6wSM0rZqEsuuUS2J84LNz9CFysgoozPRYWA999/Xy4y7J/nEJtKTCf32Z59/eUvf7Huvfdeq3v37pLt7oUYUjLkEXRffPGFxF0iMrFUsp7XwnVO7CklnXgtRCeZ6+neN6/NMrG1uGp4PtZhPjuvkXrsOW48F3c8z+XzYvkkBpTJA8eYiQCClIso2b68NqEKqa9z1FFHybFi+Y477pAJCK+rolRRdoQbMV6oGFByydVXXy2hY15jkaLkM6WWffID1jEsjIg/LG0kD+HGx4pp6tAFheeyT1zIlABBOHkh4ca4n8uCmEhvqSZEE/tEvHld6OyTUiM8btz/QUBUIowrVKggr4mQ5XiEqROHlZavxXv8Mr1vhCTb+XnPxrLs3S/rsHgC++cYsG/KmeDGN6R7HT4n23MOmHhdRSlmmBRPmDBBJuRKdiF8iNAmL4w/XG8yXQ+4hjBO7b///u6a4gODBnkL5EIoSj5TLkGKaEFwYUXDKooV87777nMfLS5ITkIoknSElZHEHxKyFEUpHvAqYJHyTuYyQZUOJsLFChVHguQeICzx1iD4ia/HAsj1htAIkixNVRAvJGRiJCnm0AkquGC1p+qMouQz5baQ4n4m2YhZalndl5IMlkYaCeDqJvsf97uiKMUD4UUILKpYlAXx2YQkFWszCTxKGDMofRcEQqEIN6JKCV45EmD/+Mc/ikeJhEtyDgyso5kKse6EFQURv0kDwU5oGnkfipKvlFuQKoqiFDuErXCxJ6bdDwhSvEpBBVlSwLJJbD4x90G45557xEpqBClhRlQgoSwgsfPeEnR//etfrSZNmoixAEspeQnFCiX9yEugDrWi5CvlSmpSFEVRLGv69OkikpR4IM6emFLc9sTA4/5PrYf89NNPlzTywLJazLYXqrXQajQ1BldR8om8EqTEpGIxoBh8KiQLpGaueyntuYqiKFGCZbRBgwbukhI1iKuJEydKpRI6z+H+x0ptwFp6xhlnSAk+StpRRnDRokXuo8UJgl276in5TF4JUhIBcK8wmBio6wlk2lO6KBPpnpsLzPtVFKU4IJObsm6ljU9+IUFn6tSpciM5irJyYaGxSBQWsaj2GwQSaSmrhSCl3iaZ5JSgM9CelW56uPRp2Qx07ytmqABD8xVFyVd8CVICwlMHIAZg3CYElaeDWplAko+B+pfMYrkRaE4mOvsw98Fbook4I2bBZKJStsPrkuH1ccHw3owrxvtcYJ90TcpUH5NseOqKeiEWyfueDbyO+UyARZb9Mhia/XvfL9AYgH2xT0VRkgk1R8OUd0sHVj2y7ym9Rq97EqSGDx/uPhoMQggylUPiPTOB9wv1hw2l7TduMESccsopcv+ll16Sv2TVM/ZSK5qmHqajHzGUpuFKMXLIIYfI9VBR8pVSBSmiiwFx48aN0oeZGShi8qqrrpLyRgSY82NfsmSJ+4wd0KqT2RhdgCi3wQBGUDmZfrSgBGJ+GGgZFOmJTo91L7wO1gEEHV2BGKRpBQoIP7oaUcaCQvLU+0wF1wTlQebOnWtdeOGFu7hzgBIhhAGwX6wRsHjxYlnmL63XiAsD3idZobjkFixYIMH4XID4/LfeemvJ/s37xZ1EfBOfn8Gx2GfmipJkaC4RtitdOmjfS9MPxjhK6TGOeWGCy4TcC6+fWkKKZhamnTDjE48z3mLRpZWymShTY5hJvTEKgHf/jGc0wjB49wvs1zu+cp998VrZPC5gJv/m9TCUUNYILr74YvnLGM61oU2bNnIjCcqI0mLu8c4kJ/VcUpR8olRBSgYkwpJWkohJbgiu8847T7op0SqzXbt2JTNTA20zGTiI30GMMUtlYKUsCqWRKK5uynNg1TzxxBPlvhe2wS3D7eSTT5bBxlhCaXvJzHjAgAHSEpRsVcSlF7IJ2ebAAw8UC2zq48QdISQpC2IENT9WSle1bdtWCr1feumlUuCe5zKIY6GldSmdotgv3aIQ0pS94r2Z98s+EKR8Vj6bEeGKoiQPJqj83rMN3iOseg0bNnTX7EjUmTRpkiTr0NENGL/oEkfP/HPOOUcy+BmTmFRjVKDrHAYBstJxczNxxkI6ZcoUGd8omM7kmucyvpMoRGc4ytcB4ztj4COPPLLLfhnzEH6Mcxgu6PRmrg+33367vL8///nP4jbPBoRj0WkOeE3eJ9cFSg4y+b/22mtlPOaGUQShDYRRGYsun4HjV4zsvffeRV36Ssl/ShWkxJtQUgPo0oMwxFrq7RTECZ46C0593NynL3rqLN4v3hk5+zPdhdgn78v0VTcwCFGYHjHIDNq4dQwMlAxO7AuxCQxuDGS48rFO0BWJ2naUc2E/DNq45MF8RvNevBYCYF8M3AheLliKoiQTLvQkzmQThCJjEJNgvFOGESNGSPgS4pHxC0skyZ7UmLzyyivFI4P3iufSNhKWLl0qk3b6mzOJrlKliozrbM+kfJ999pHJN2KTVsaNGjWSuEvGf8QktVJ5TcZT736ZnGN4oIUwlkesrhwLJuGMybwvxkDG0GyAZRbxjRDGMoqnjBhS4m55bcZivHcIeQwgjN9ATWg8WzyPaxUGh2KE61Q644+i5AulClIGw+XLl7tLO4QgQs5YKsF7PxPptsECysAB/DWuGC+8nnErsY9Mr0XLztSEAlrKYU0AxCrxRAb2Wb9+fRmQsXSa/TKzJxCeQd1k6+Oax3VvBKeZoXvfi7nvfb8MkgzSDNokASiKkkzwFjHeZBOEIu1HseYZCyNWScYhxGPLli0lJp8Jf/Xq1cWSyuMkf5pYetPmFwsr4xLCDAtmKkyuEaXA+E7FAMYvU98zFbNfrg1m7EOk4pGiUQqPGzHIPryhAEru4Ls66qij3CVFyT9KFaS43BlMyFh89NFHpUMGAwwzbuKmmE3jzmFm7XXLEIPJ4Ihr6NlnnxWrKDGdPA83CoMdYQDsk+xILJIEzW/ZssV6/vnnxTXDfVzftDybMWOGlOwgIJvXBUQjnU4IK8B1gxj0Ppd4V+KHsBzgVsIqYMCqipunY8eOYgVArPL6Zn/Dhg2Tz85rIVz5zAzUxLAy8OKeY2Dn8/DZEcTLli0reb+4rtgfrjMGdK1PqCjJBUFHiE+2YHKOeMAyifjE6gcIPsYrU3wftzXjC4KUiTNWUMYyIxjZBzfGxIceekiy9nv27CmPZZrs42qn8xEeHrZhvXdbMNsjcCm4bsA6ikUUzP7Mtkru4Xs0nkVFyUucwaJMvv32W9uZmbtL2eOf//yn/dNPP9nOYOeu2R1HELv3drJ27Vr7jDPOsB0RbP/yyy/u2t3hMbZJhzPoy+uDI57l7/Dhw21nhi/7dwZ2e/To0bIevvnmG/de6Zj3y/HiczliXJYVRUkmS5YssW+55RZ3yR8PPPCA7Ux63aWdvPzyy/YBBxxgOxN1+8svv7R//vlnGeu6dOlir1u3znYm57YzQbZPO+00+5FHHpHn9O3b1z755JPtCy+80G7atKntTP5tR7jajkC058yZY99zzz32NddcYz/zzDP2gAED5Dls17lzZ9uZVNv77LOPPWnSJFnviFa7UqVK9siRI21nEi5jIOPYkUceKesYG81+GesaNGhg33XXXfaIESPsZ5991t6yZYtduXJleU8ffvihffrpp9sDBw6UfXsZM2aM3b17d3dJiQO+m27durlLipJ/FGTrUKyPxEllMzYTqyrdLJwBWFxexKCeeeaZRd2fX1GUssEzgwfIJBn5oTytQ/FaEeZENj4QGkSlEuIqyY7HS0P1DwNufmInyXo3z2HYxxJrrKleiKknJpbnGMsvFlI8S+nAQ4QXyRvnXxZhW4cq4aFEI9USOPcUJR/xP4LkEYhF+hIT0J4tcFMRFkBdUgZkgv9VjCqKUhYINdyhcUHcqBGWCFCqgyDwmKhTno5wKC+ITgSmeQ7wftOJUTAJWt4whExiFIg/DSJGldzAJCS1XJii5BMFaSFVlCihkgRxwsQQkxDHxZtJCj8VyscQO8fEBQGAFenbb7+VOGhipYnlIyMZKzvxWliy2IamCibhgzI77MeUosH6hPWK12I7ElOIxyNRxogC9sMNKwcWssMPP1yECeKB12EfWLx4n7wOSSXEO/PXxI6xDdYy4r15r8QkYtniPfG4sZqxHY+zLWKD1zCii215HzzG5zZCxzyf98s+uLEd74fX4XFuYMQL2/M4y3wW/tJogmPAZ6eEGu+PY8rj+Qqx5MRSUlvZL+WxkKbCuUMMO2KDxEwm1/mOWkjjBy8gnkUs+oqSj6ggVRQHrO6U2kGEIr4QQQg6qjAcdNBBJWKKiz8glhBlCC9+QkbsIar4i3jjLxiBZp7LY8A67vNcsw9EnBF+PM7+ELQ8zg0xynaUYWM7sw9ey9xIKDQij8fMc9mWfSECEaU8joBkW2AbHmf/iBv+IqzZhsfMZ+M9GgGNIGUbsw9gG94ngpX3gmBFfJvPBLwH9oF4Zt8IXxIeEfm8Ls8hZIbtzOtQE5l13o5t+QCClIzzuFz2SUAFafww2aNEV67baytKJlSQKkUNlSCoioAQo+QXxcCxyin5hanEQRY51T2oXGE6t+UaGn9gdfLGbZaFClIVpHGDV4dasjSTKRTw1DC5ZZLLBJqJKh4UuocBk1omzEzQzaTYeGmYAPM8s85MrM1fJutmws5f9gE8z/zlMbNf/prHTAgLz1OyhwpSpWihJSyWwKZNm+5Wx1bJXxCntPulpTBWSeqA5hKKtVPzmJaVfilLkFK7+JZbbtkl7jMVOjBhmUXY3XjjjbGENfh5X35QQRo/hPvQRpVyi/kIE01CT2ikQKIcQhTxaIQjYpB1JPDNmDFDvC+Uf8R7QpgKfxGVSBqEKl4gwhT43Hhg8HgZrxCCFbHLPvgd4ZWhFCTGCLxhbMNrsQ1Cnm3wBLEN5z6PI1B5DfbBe+d1CMfCo8Y2PG62MWFdfIaDDz5Y3q8JY8IYwjZcixDbvA5hW4Q68TqAsGYfHBc8SbwGn8n85hHIfGbeLx4lnsdrEPrEcTEyzxwXtuOz8jg33idjCceF16IbJuFevI9jjjlGbnGgglQpOt59911pg0tiHD88pTChJifF43FDUi84V9AsY968edKe0y9lCVLCAOjGZCwy6aA4/rRp06R4Ppb9qC4aWKZNpzs/78sPKkjjB8FEu+18s8rTHZFJHcIJsUZrbm6ETZX3PIsDRBwyihv3Ec8IXP4i7ljHjXX8Rfx5n8PNbIdg5HEwzzd/uSFeuZkQMrMf85fXQLCyD0Sq2RfrgXArnm/EvtkPrzF37lwRuTzvjDPOENGKAP7kk0/kL3kLjLVRGm9UkCpFBcXE//rXv4p11PxYlcKGlr41a9a0TjjhBHdNvERhIeWigvWDCwUXBmJwsZBgPQFKPFE439uBzlysTJck4LlcYIzlyCSRsV/WcYFivXFXApYaE7aCa7R79+7SehO87wsyvSZWF7blbzpUkMYPlr6BAwfKsc8H6GI4Z84cScTDMECyqJKfIGAJS6KDJePF9ddfL82Cso1ekZWiAXfIE088IXUbVYwmh169eokLj05ruQDBZyomZAO6v9HxCFcgXfKIbaY+MgJ0zJgxYkXBGovAePjhh0VU0teeizsWYy4WCE+EJO2RmzdvLqKddqS33XabuNwR70zMcPVT3o7kMrrP0fXuqaeeEosr0IlvzZo1sn/v+4LU1+SiRYe79u3bW0OGDBGrqukqpeQeJhH5YH/C/Y3bnfMX6z7njIrR/IZJaJ06dawpU6ZI2A7j0YgRI9xHs4daSJWigAsjrRNpjagkE9oF42qqUaOGuyYeosiyRzBSSgprI0IUUUjdZRKnEIyIx8aNG8s2iMlWrVpJy2Y49dRTxfJIfB0JLEao06b5rLPOsq644gqrQ4cO1vnnny+CldAVEsQOOeQQEZu45HCZEqPL6/MY9U3BvC8Eb7rXNHGtWOFowYwISlcOi8f/8pe/iIs2yWA9RvTTxjrXIAD79OmTs4kb0EocUcN5bNrMKoUJycCMRdRBzhYqSJXEgwUJq02+BvMr2QNrC9a5fffd110TPVHUIT355JMlwQOrI/GxCML3339fPh+uM68gJQbvrrvuKqkv2a5dO6tatWriRselz2NwzTXXiOWzUaNGch9xSl1Kc79hw4Zi+cAVh3WV10R4egWpeV+EvqR7TSwplBXCesJnpNQQwjMVBOnLL79s3XTTTe6aZMJnxIr8zDPPuGtyBzGknTt3lveTC5gccc4j0JVkQEhPv379rOnTp7tryof6LZXEQ7woF3Il+XTp0kVEVaGDncDYCrx/zX2SGEhyAJKZVq1aVZK4gEsfgendHrzL6e7jPSAz9+KLLy5x7/LX7BfMtpleE3jc/DX308GkgXCBJN+wAuZLeBDfFZneuYAJDZ0QVYwmC87vBx54QMqJZQMVpEqiYSDkYmli4pRkg+uYzFEsh3GB6DLiMBvQpOGzzz4T6yNWJUQEFQWI58QigSud+E+2wzqLGx1XLFZN3LEkiRx99NFyDDj/2RelYMiWx7qJK59KEzzOvs193PRYPUnOIuOZGFFEIwlUrMNCa95XutdEpNJcYvXq1eK6x1JK3KmJOVWKE6zpxO4Ta6wkD0pcEa5ELH95UZe9kmhwCeKWNGVrlORDswPKIRFTGgcUxkeIUUrML2W57MNgMuoRk2HBRc/ziX00NRCxrLHfdIR9zWLJssdVf/fdd0sVhlyDy554YcRhXBByQsgHsaNKsnnooYekTBfhcWFRC6mSWLDSMCCqGC0uiIHke8cSGAeIOCyQuYZM//KIUTDPN2IUMolRyMZrKvGAFZ/i8HFC3VNuSvJhskN5OCY+YVFBqiQWEjq0A1Nxcvrpp8fmtjcFqxUln8EZagqhxwEhIlSAuOCCC9w1StLp2LGjlKoLiwpSJbFQKkcFaXFCQgkxlnFANnvclidFCUNp1u5sQ41RyospxQO1SqksETZuXAWpklhwo4Zpp0hJHRIyvDdap6USl0tYCQ4JOiTgxAFxU95ORYqSj1AxIS5LPl3F3nvvPbWOFiENGjSQmPowqCBVEgnJFiS3hCm5csABB0hGMUXWuRETQyahFxI9KFhOm0Ul/0Agku29YcMGd020xGl5yhbEvpJcRTvATJCMojGAyQCXPUIxDgiXoX6uUnxwzaS6RhhUkCqJBOsotzAWAcRFlSpV3CXLOvPMM8UK5mXGjBliAShPvIwSLbiNKJEUNUx6ClGQkrjEMWLylYnDDjuspI+9UtggSNN5eqKAc+q4445zlzJDBz3jhaL8WCqU7PN6qkhUTUU9VfkFYXJhvxMVpEoi+dOf/mSdffbZpRbmLg3cWwbvfcPYsWPlL2VrvIXDlfyB2rMIqqhBkObiHKA4/g8//CCWTi7cQFcyc9/ApIztUmHd3nvv7S6lZ5999nHv7SQfKgoowSH5js5ZcUDYE2NwWfD7pHsUVjWEzObNm91HdkCN26pVq8rjc+fOtQ488ED3kZ1QA1PLSuUPXC9psJFu8lAWWodUSSxNmzaV2mip7nY/4Oo18ae45b37oO7kxo0breuuu04ee/zxx+W1/MBF4ZZbbgktlAsdRNTgwYNjsSjSzpI6tMcee6y7JhooNk8XmjjrkCIsmjdvLpMuzqnZs2dLvUuK1lM0n/dE6AnF7cmsJsGLAve09CQEhV7i9PynHigXfGpFVq9eXSymPPfSSy8t8TKwHS44znk8A3vttZe8HkX7w2Ztax3S+CGm+sorr7SWLFnirokOSu3RZOHCCy9012Tm5ptvFis8WfmMjZybhuuvv15CSmjgMHPmTGmX6+WTTz6RJhCET6klP38gjpSObzTOCIJaSJXEQsmRKIQfF+M2bdqUZJCaXuF+oFg75aj+93//tyhvuN3oNR8HiLY4kjgQ2dQ9jRMsRfSVp5oArXFJHvn666+lGw73Occ4/6dMmSKNIbjoI0QQm9xHzCI6TZwfZbLMpAvLcrokLYQCVq9DDz20RLgqhQNhRwcddJC7FC177rmn3PyARa1nz55yn4kaVn4gW5sOYIZ0niraVuKdeOqpp0oNPVHihXCg77//3l0KABZSRUkiFStWtL/88kt3KRjr169Hycpt+/bt7lrbfu+99+x+/frZH330kf3888+XbPPKK6+4W5TO4MGDbUcQuEvFx8CBA+UWB7Vr17bfeecddyk6nn76afvKK690l/zhXEjtrl27ukvh6N27tz1r1qyS+4899tgu9+fNm2c74lTWQdu2be0JEybI7+Ktt96SdePHjy/5PhyhKX/B3N+2bZtdqVIluV+5cmXbEQtyv7yMGTPG7t69u7uUXBYuXCjnYT7gTNDsLl26uEvRwjm1atUqd6l0GA+dCZ293377yVj6yCOPyHrG2X//+99yLrLenOuGb775xu7bt69do0YNebxbt27uI0quufvuu+XcD4paSJXEcvDBBwfKst+6dau4LpltY/Uy/O53v3PvWZZzQZdgfdz2xMiYsiZBrKRKPOCy9nYcigpew681KJs443eJByDdfUJOHFFQEt9KbOlZZ50l1lWv2xaXP9BxCcsn2xsrlXe/hx9+uFikgGQxXPhKYRFnYfwgcO4RSwqjR4+2tmzZIr/f0sbvhx9+WLxUpoc68aalJW3hMSH8hE5uxXg7/vjjLUfUu0cjWrBmh6lwozGkSmLBVUkMKa5iP1A77aKLLrL+8pe/WI0aNZIf8ZFHHlly4SXgHveoV3wiTIm9wx1GnB7blwbuapJQbrvtNndNcWHiwzjGUdO7d2/r6quvjiWGlHhKYmP9Ut4YUmI7iacjVo9YZi7MXHCIuaOXNPdHjRol5xvnLbGmJDF169ZN3PktW7aUuGfObUqk4drnOyFWr3bt2hLLN336dBGoCAXcp0zSeAzXPuf8Pffc476b4GgMafwQwsE5Gscx53fO5J5QkLKgrBjjIYlQRxxxhEyICCkZM2aMte+++0riE+clYopxGdiGc564bSZUhJlwnt9+++3WjTfeKNuk8uSTT0pIS3nO20Jm8eLFMlYRchY1HOcTTjhBxotAIEgVJYm0a9duF3d7WeAewvXaqVMnu02bNuIqWrlypTzmXLjtqlWr2tWqVbMdISHrnEHRfvzxx8VdxM25SNuffPKJPJaJTC57XufRRx+V24wZM0pcqkH56quv7D59+rhL2eXaa68NdDzTEafL3hFntjNJcJeiwxFrtnNBdZf8kQ2XvV++/fZbcYl6cSZF9tdff207glPOe4MJccn0PXPOb9myxV0Kj7rs4weXfceOHd2laMHdHsRlb2jWrJmMpc6kyl2zI3yEdV6X/dSpU21HfNqTJk2SG78ltjnkkEMyhpUsWLDAdkSyu1R8cPycSay7FC133HGH7UwA3CX/qMteSSy//e1v3Xv+wMWA24fZOtYiaqlRbgSwfDK7fPHFF8UqBVhFsTI5vyO5YWENW2aI18GihasDVyuzf6yxQcEaTLJKJgj8Ty0LVBpkvhouu+wy6/e//727VBjwvUQN31kcoQFh4TvDJeqF38Yf/vAHyZj3utZMmadMlSk45/fff393SSk0sIbHAZZ1EwpSFt7tjPsdz4bBhE+Z3zJ/qSSBJZTkUm6MlZznWFmx7Cu5he8/yHXGoIJUSSy4dcJA7FJZrvcoQATgojr11FPFTUq8qhc+D2WmvHCB8WaSIxi8/fsZ7NmGwYFQgS5dupQcF1y4DO7eDHHv/nFxTZs2zV3akYntFS/s13sx4T774rXialFYGlzI0mXmKkoxwu8e13ccUFrMjyB54oknrAcffFBCOBhPCC0h4/60006T8YmST8T2w5w5c2SC3KlTJ5n8Ew5hoCufmSj1799fwlL8QukoxrmpU6dKCT/CsMJOZAmfobxatolqv1FhrjlBUUGqJBaTmFFo8L4ZbBs2bOiusSQGbdKkSVKyh0LQMGzYMBmkGYAvv/xyeQ7bmEQrkq4Y7Bn0iSVk0MZCSrwgAzolfIinOuecc8SygFWChC7isRhMEKTEOZIAQx1K4ruY+TJYE4uGtRhLLrFdPJ8SLcRw8f6Ivw1V9iOL8Pre5LSo4DUK9VxTigd+t+kaJEQBiaBMjsuCMQ7xythjvC8mxpPSY8SS8tvivSMa8U7RHY94WGqPGqilSzw02+HZInnPLyTrkfy3fPly6co3ceJEiX8NQ2leJD4HcdN+KWTvFIaVMO9XBamSWFKtiYUAQhELKRaCoUOHumstKWiOBQDxSLFzLJEI0iuuuMLq2LGjiE8G6Dp16pRYLZcuXSqCkuSXFi1aSDtU3LQUx6ZgNe5Z3PuITRICSBggCP2DDz4Qa8r5558vwpLMVN7TfvvtJ/slKB4RVrduXWvkyJFidaXjz4knnii1MUniQLy+8847sn2u4PsPa+kISlBrANvz/pggFOMtqhrBSmZoRuGne1I2YDzI5zCWVPBOEe7EuMWkn4k5WfmGdN4pvEBYAr14vUhe7xSQKEjDFWD8ZAz3eqfMZB8++ugjMTQYUr1T6bqv8Vo8P9eGAGAyEab5iWbZK4kF1zWda8pqjxgnpWXZk7lsMkR79OghfZ6ZZTJQUcAci6QX1hFzxUCF9QDLgbezDgMT7i9jOWU92ddYAyhTxH1cWwzGzN4pt4IApbvGypUrJXOcbRHDgNgkjpYMWp5jMuUJb0BII5B5TwhVBHDXrl1F1HqJM8ueTiFUREAoRwltCxHppp2sHwjJ4Dm02CtGON8ISUk9P5JGvmXZ9+vXb7dQoCggcx6rnp8s+7jA40PZMuJPU2FcYlzGw0OGOF2hXnnlFXmM7w4PEJN7xk3GObxGjHkVK1aUfRLHyoQfowDVVhCviFrGb5YJM2jdurVYeLEKc3wIT6DDG2EC5A9gleX6gNeLMQUBy3WC5hdmv4y7GCS83deoNHDNNddIySvGb8Z6Oqph1PDCeEMIBJ8tajjnOTZBs+zVQqokFmaohTTfYtbM+2XwwXJ51VVXyXpm7lgtEaiAMGXGTukeuvPgHkGMAs83n5muSJS9YgAynVCIqTQxpN5tGYgRR4g4tmG9d1sw21NGyQzWgODHsgBmf2bbXELCjh+3YXnBWhHUKkEoBZOH9957r8xb5cqVrWrVqqV9LFc3SmoRGpLuMT83LEVJF6P5Br/HoImeYYnjd5dt3n33XfESvfTSS7v0xk/nnUJwXXLJJeJtIkSAEoNeL1Kqd4pkVwwAjK/8biiJxDLb0D0L4Y54YyxnHdcAXhMR691vuu5rjPOES7E96xC/3jrDuYDv32vR9YsKUiWxIJIKZWAkfglXJrNqZrq467lwY2Vcv369WC+pkcrAxQCIO4REAGbz1J5kO1xMBOQzm2f2zMDWp08f69tvvy3pAY2V84YbbhBLJ8kC8+bNk/VYEbEmMlMnI5uBlxkuVoX58+fL/uiFjcWZHvFc2BiUcdlzIw4Mwcx+cTfxnlMtunGDwI6jZz7uqagsnSRckGyBVYuwinyByV4hio5iJ67C+JwbhZZQiEikRiteIQwAYKoFYCDAAMAYSHws3iys3zxOEiyTXzC/CaygTOaZvDMep4JYMxUtMDgw5mLBZJ3XCGAw+12xYsUuj+MFZGzmcdPul7AsbyhALjDGlaCoIFUSC+6NQoHZN4IS4cmgRPwVbnPcQZSBatKkiQyGuIlatWolrhpmzwyKdCxBJJJchPBEaDIQkiiAsCVQH7cO4LLBtUziEhY6XE3A87B6ks3JgEzIAO4frAYNGjSQ/SGUGWgZPBGyWAeuvfZaiUdldv7aa69Jr34mAuwjDrd8aXg7bEUJF5d0vd+zwcCBA2Vw5yIUpPB+1KggLUziSr5LJ6ryGSOg6O7HmIv4xOuRyTuFIMXqyaSfsCfzWzCeoSDeKfbJDUsqIQGsz+SdytR9Dcz+zLa5hPEhDCpIlcSSi3aOUYLAMiKbGFGsZsSOkjzEzDm1/iiDJOLRK8wZ6DIJCVOr0puMUJqFEeEcxi0TF3FYR4FjGkUCB9ZRLNUGwjLyxUrKBTyfv3tldzhPgybfhSWuChfZgDa4CEIm5ISSEMtZs2ZN+Yv7Pp13ihhNPFTEnpJYivHA60XK5J2iggCP4/0ifhRLJhN4XPxM4Ik9pSoKHiiMDnis8JyZ/WLFZb/E+VMzG1c9IhVDxerVqyW5FTHM9QHrba4gHjeUKHWUtKIkkm7dupW7s1C2ydSpKQx01Zk9e7b91FNP7daJJ1+Js1PTDTfcEFunJjqTZBu66jBEe289e/Z0H80tzoXSvu6669wlJRP51KnJmczYDRo0cJeipUOHDvby5cvdpfygPJ2afvjhh12uJSNGjLC/++47+9NPP7Xfeecd+5ZbbnEf2cG//vUvGZNTrz+//PKLe29XnImCdEwzN8i0LaTrvlYWcXZq6t27t/3YY4+5S/7RKa6SWEg2wSqQVLBQUn+U4Hpj3VR2wizdGePcpejgNcK6qDKBdZRs2VRwJxKvm2v4vOqyLyxw88ZVGB/rHuNvUvB6p7Bi4p3CQkqtUKyjpvazIZ13CjJ5bYjtxeNgblCah4fs/Xwe8/n8YTwoKkiVxILbKA5BouQncRUBB2+8VzagFAwxo8SukbRGuR5ccZSLyYfWiCpICw8EAjGRcUBMeVwZ/XFD0hAucVz4jDEYBIgpVXaCsSRMXL0KUiWxFGLxbT8t4ogTQpQQcxRXNmWhta4DkruyLRTTQawc1thsggil4xUlX7CEMLhTV5CyLiSc5RoVpIUH3xclhuIA4RtXDHcuQGwTV0qZqGKtJVwaxuIbFBWkSmIhEDzuwPoFCxZITc/UDh5+8dMiDmsZGZkUpE9XUiRbFHLrOiChINuu9HRgJfF2dSkG1PNQmMSV6MkkKsnhUkrpIEjDTEhUkCqJJRdZ4HRDolQP/ZEpuRTUbYwbyLxnI2oRVgaslPRshrZt20qGJbFaqa/Dc00MJaKcx1k2WbaUf0nNuCU2ylBW6zr27xV73Mdayz7zJXaMEi5x1F0kw77YBJpaSAuTuEqhIUZ10lK8hJ2MqCBVEgsFi+OepWMZoMg8HZQQdPSOptWcH2FKXBIlQCjXQYmfqlWrSskRunaMGTNGxB4dfnBFU3sUUUlZIFrNmQL5iE5KglAjtHnz5lJmhDqhtKCjFR1lQ2idR4tSWtIR1oCVlZqlFOWnPilQ7mTNmjWyf+/74iJDbCNlUjp06CC1T3k+5UewDONmpn5p0M5FUUAHqTi+f77zYnPbEQqRZJdsEjGT0zjIhXWUCXV5Pp+fsCTGYMZbxk/KRcUB9Uyp8VxIMD6E8U6pIFUSS9ge9o8++qgUk2/atGmo25YtW9w9WZIRzeB1yCGHpO1f78XbIo5AeX7QFFWmgxJikbglCjYjfhCDiN4pKW3kKJqMkKVzyNy5c6XFI/XvEJ/Dhw+XbFCeh4DlPkWdqW1JLBSt6ygCjZjM1LqObiIM+vSrp0NTly5d5DgjwnkdujchXqmNmg5ELt1QjjvuuMA3xP3bb7/t7qlssI7GcWHEcpzPGa9RwLmpgjQ9nOPcUsGrQO3JXMFvIS5BirckFxZSxiHqc4YRQ37Ckm666SZpYsK2mca4bEDtUePB4vWOOuoouV8oIEjDfP8qSJXEEtZdi2AjiSSd2PRzSy31wftA2HXr1s1dkxnjBuWvca9lagWXqY0cAolwBQPCwQgmkg1M9iuDLxZVLJpkcyNmea10iUDmfdHi1Aw0iFT2h5WVx/20rqPjE4WkEdhBb1wEKBrtF1zpcQhSXiOpGcVesJYzgQHOEe85gdVI2QG/PSa0eA1o04t1i8kfYoni5rkCkRaX58KEC8UJ4w7jEaFMTI7pShdEgHvDkvBo8f5TcwEoQM/4TnckCudDqlWV5/C6CEr++gmXMt4nYFsm+mYcpue9N/Y3U4gWz88HzxQQZhamK5gKUiWxhJklA4MaVj46bIS5mUGBwY3WnIhEXO/GylgaDCpmYPL+NfcZ4MznytRGzrs9eJfT3cfVjtX14osvFnHFOv56hanZFkFJRxMD1lGOFfC4+Wvup4Jw44LNew9684psP4T9/sOQ6fMmCSzUZ599tvw+Jk6cKOEg3CfMAwGg7IDYZTwYy5YtE4s+LXcJcaFVL96SXMHYEVenL14HYRU3TK6BTkgkfhKihMerLGHqDUuivBptQTnHO3bsKGM6MOkiPAkLLJVOeA5eIkKg8DAhwqgdjEWTbkrt2rUrM1yK99W5c2frhRdekLGb/XPOYCHF+4UVlsmMsawzKfSGaDHx79q1q9W+fXtryJAh1imnnFLS5jQVhCyfj32GuQX5PhHpmYwSpaGCVEksCKo4LGReEJ8UNaf3PIMKAxQJTn7wtp5buHChFLHGhU48J0lGxCwxoLEdrebStZE7+uijRTBSrJl9cREkW56LI23v6E3P4+zb3K9YsaKEBdCmDksqg96+++4rg0pq6zoGWUQlrnkGY26EJTAI8hq8z/Xr18sFONcwgJZ1IcoGiNE4XifXVKtWTUpPceHlO+fiyX3CSJioKDvBtZsaxnHttdfu5j2JE8bDsmIkswXW8zBjL+MRE3m8SmFuFKz3wtiFd4pk09KSLb1hSVhKmfzWr19fWjMjFoEmJHx/jIFMzph0EBLVqlUrGeOZoBHqxG+CcZHnlhUuhWWT1yNcijGXlqNVqlQRay95AFjVeT4gYFNDtBDPjPuEV7GuU6dOsj4dVALhNcktCHqjLTXVXfzCcQqTQKeCVEks/PjjtlxhGUCc0esYq14QuKhjTWnYsKG4nRhAiJ1kBo3Qo8zTVVddJZ+LQQioRcrgxyBFSACDMgPjyy+/LJYaBjmEJAKSWT8zbR4/9NBDS+7zXC4EBPVjcaXOJRcUxDDrKlSoUPK+uMjOmzdPBksusFgAGAxxS95xxx1iZWAfvK9cgzUgDjjHwrinCpHUOGjEA/28lV058MADdwnR4QLNbymXELrD+4oDEkrDhLEQ9oOVE5d0mBuWQi9MtplgI9II4SkNE4ICJgSJ8zvd8xhbmNCbiag3XAoxyV8oK1yKdTxObD4i2OuVMpj3lSlEy7xXKC1civEfLxg974PeuE5gaPALIQZlHe90qCBVEgviMG7LFVYkBoo4YXBLtcYExTzfO4iUlrTC4GkG3XwFi3BqrFYUYHlhklAM1KlTR6w2BuKBscoru0OVDfO7Qozm0joKWCzDJnoGxYi5MPA+GXvC3DZs2CD7YCI/depUcTVjwfTzXphYeg0Y5r53HdcTQoFIGuVYGvc44pJwlnT78O4n9T6eJG6EFyDizOPekCmzLQaOdCFaYJ5nts01CG+vwPeLClIlsRDLmQ8/TiU34DIqj2jGPV2zZk13KTNcGLw1XJOOsX5zbPPBEp6v4J3A24AQxZuQDyCkyoJJx8l/zhwTjNuYSXBpHgjEYdxjL+Xw+B1Sim7t2rUSSuL39+8Nl0LEEtJEAhMudD4nbnvc3Xit6JKHAKX03qBBg6TNL5Nf3OWIS+JLeZ6fcCk8VYRf8TvivZO0iRsfVz8JcYQcULGBbRDZqSFaiFTeJ1ZMXhcXPrGtcXmHMsH3HwYVpEpioU1emFkas1MVsoUP338Yt5FhT+eie+bZ51qXX97IXZMerAG4yooFkjwILyE2T62jpYOoINkkrg5JZVGWQKNKSOXKp1q/L+X94hFo3ORycQFnEj6Mu+WZDIaBcCUsliQYBY1f9YZL4QFAFDZo0EC8XYQCEPOJNRIjB7GjTHYR7vPnz5e4UWoz85kJf8JbwvP8hEvx+0EAI0gRuiRSIfapEDB27FgJl0IME8uPyGM7b4gW4xu1qZ955hmJa6VmKSFVhALkEqzIYa6hezhP0iuvkkhwJ/KjDuoqwwLArJOEpGzDxYnZdVk1SZOKiTcMY1kL+lxquGKhCptwc161ala//gOtrVu2WPPnzrJmz57lPrIrlD0i2YxqBVFAhi4XW5IWyoILAU0UuMgVOrhHSSThwh8FWLfGjRsXatKaL1CfEgsdMZtlgQWQJh0IoXQgci6pW9P60+GHWzf1u8V65ZUdJb5SwTK4dNmL1r1j7rIOOWhH++JUyyvnLIkwJOwEAYsi8fNY+bLNk08+aT3wwAPyWy1GiFNF6M6cOdNd45+gx45zDIsu9bSDoIJUSSwkA40YMUIFaQrE1jK4YOnKVK7n2WeflZl5tt9nnIKUrlG40YImlxmMID3r7KrWvCdmW08tmOsM5jPcR3eCK2/x4sXWgAED3DXZJYggxW2HJScJEx5csAhGEvqioHLlytLml1I5hQrVPBjjTIe10kCQIsL57adCDGPNWhc6+7vcWrXydd+CFA4+8AgZU7DsGShtxHsLKkgpeUTCJC7vbKOCND5BSoIrVWCwMgcCQaooSaRLly729u3b3SX/TJ482W7Tpo27lF0GDx5sO8LCXcoNv/zyi123bl3bEZzumt15//337UqVKrlL2cMRAHILQ9DnOoLUXrdunbu0Az6z39upp51mP7nwWfvLb/4ptwmTHrWbNGnq7mknK1assIcOHeouZR9H6NqOwHSXSscRb/YRRxzhLhU269evt53JhLuUfRxBaq9cudJdKkzOO+88e+nSpe5S6WzatMk5f5u4SztxxKg9fsI4+x/fbZPbc88/Y//5zyen/U1wu+GGG+zWV15Rsj23Pffc0/7uu+/cPdp2t27dbGei5i7556233rKdCYK7lF0WLFhg16tXz10qPmbNmmU3btzYXQpG0GPXr18/2xG/7pJ/NIZUSSxJrQ3J5yKuCUurySJP1/2DOKjU4vA8l+3KinlMV4SeIP1CIvV4jB8/3urcpat184BbfN2OO+54Z5a/owYgXNqwsVXrknpW8+Yt3DU7MJm3ipLPkJ1NUo4XMtAvvKia1bTpzjjpChUrWCeddKI14Jab095eeukFq02b1u7WO9j8xcfSXINxCbBup/7+lOKBOOMwY6IKUiWxIMiSBheUsrp/OBNNCbIn45MAfLJOgVqhbEdAPXVKgaxMEwBPNiiB+OBNCti4caO4YHD38NqFUnMTwe6FhgWNmzSz5i1Y5Os2dtzD1v+mhHs0bNTUqnHxJVaLFi3dNTuOVVInP0pyaX1la+v8C6pazZo3cdfsYK+9fm898OAY68mn5qa9LVrylFXlzDPcrXfy+ZZPpLg8dTAJkypPQmFSYUwiDIWxNBOES0UV/hMXGDS8IRx+UUGqJJawpXjyOcuewtZldf8gVgiBVLduXcnIpC8ylguK6iNUySSlpBEQ42VibIlDMwWWvRC7SQYn2aFk1SJcC4EtW7akLTRdXi5v3My6sEYt6+xzzpGC27xGvk9+6NDDeUFtRm5kB5c38YnyNXRvoWROEmCyR0MLjg9leUqDWF2yoolnDtMiMReQpU3lCeLj+a2fd97ZVvMWTd1Hs8MXW/9uHXvcsVJ5QgXp7nBMGEMp55QJMvIXLFjgLhUmfP9hqiyoIFUSC7XfkuhK5cJSWveP5cuXlwhqLBZsg/ig9ai5SKQTnpmgLzQJUGTNUpgZK2khwIQkCkEKGzdusE52JgUcXyzGlIzJZ5h0MEkhy5qJCxmwhDDQdxv3aib4bNR0TAeZ3UyAcl3zMFsw2aMbDR4FPA+lgRAnEYjuaWSZFwJMtCnmzjnLhHbjxg/dR7LHJ5/83fr1r34lFjKvlyVJMPnkt2QmoYy1tAv1gsvahC94YV1ZzQnShUthdCikaxlJmGFqkaogVRILQi2JgyIDoBGc6e5T5oiiywYGQKyqDIbecipmgEPcIioQb8Yd790vfZpNZi6iFhd+IUBMWxRWmpHDh1q/dkZO6v9Rb5CLUyGEMXA8qId5yCGHSEvFu+66SyoQXH311e4Wllj7vLF/hIWY7jfgfZxja6zr5iLtJdVDwfnGdt79U9cxnyyMfB5vfLURHV7BgbXZ/AYoUcQxTP0c/Nb4/XjXpcZgs2+24bleeE7q+ZSt48SYSGtOfs+/++/fW0OHDHcfKT+bNn1qXVKrvvXRRx+LIAkz9uazd4rzllJyVAHAO0WVBsaAoUOHSv95Km0ArUrnzJkjXqvrr79e1m3btk1K0GGdxgoPfsKlOA/waj311FMyeQzSvjPXhPkeVZAqiQX3VNzFmaPGT/cPCpZz4aEgMy57bohOBkguoIgMXEYMoIgE+hvzHIoqIypwQ7/00kuyT7YjXpV9cCFjn9Q+LAQQ4t7v/9RTT7XG3T/GOuXEY3zdLq17sbVlyxfus3dw58g7rD3sfzvHZJC7ZoegR+wVInzvc+fOlfOA0AwufBRHp8wL5xcWUGKOsbCnPg5cPLEoUsMSqyvWQm6IXLY15YhwcXPxphMNpc+AZS7cFDJnfb6BBblq1arW6NGjpfg59V0RJbxvrMqUP0IwpH4OirMT4kItRkREagw2grZr167Sd51jQdkp04Lyvvvuk+0oV0aIBWTrOKUKBMINfvub/7buuH2Eu2YH27Zus+rVaWidULFS2tuxR5/ofP8L3a138Omnn1kX16gjFlLgfMpXYRkWxtTzzz9fhCOx+DfddJP8PmgRS0k2zndi+CkbyO+BdYyljNXcb968uXiZ6tevL/vzEy7FvrC24v2iiH5psadJQAWpkljMjDNJ+On+weBFtw5m8rQsNC52OnvQgo6BFDFKIXeKgnMRpEMIjzMDr1GjhhQkZ1ZPp5Djjz9eLqoE22cqqp2PMMB7rQ3EzlLfENHu5/bLv362Nm7YaZG4e9Qw6z/OuiFDBrtrdoDozZdOPEFBSHPBw/pG9xlED9aeF154Qc4vvnsmLHSvSX3cQOF6BGr16tWte++9V2pSsl3t2rWtDz74QKx7nHcce0I/cHWznvMVCxH7YzKUb1DUG2GFVQxrMoIDUUJLSo4bCYPUSE39HMRn43ZFfOCRSI3BxjJG28f9999fhAriE+HC5I/fdrt27aQ+Ksc728cp1Yo9cOCt1q9/9Rtr2B0j3TWWWDix8Kb7TXCjfeXTT+0UpJs3f25dVL22M4HZ5K7Z6X1JGmWFS61YsWKXMCE8KMRYk2BqmgcECZfCyECIDefStGnTfNUizgeYuIU5B1SQKokFt1Exw0Ux1ULMjJwB1czMDSZuKXW9AeHKBbSQwKWcaqVBFPi9ed3999w1wvr55x+toUN3WPe8sF2YeKl8gPhg4iC5oJ599tkyOeEimy72NtPj5gLLRIZEMizpWPyIN8b9zbZMBvhLOAkWVOJSEblcaBFfiL18g3MeUQh8jnQu80yfg9+d+U2li8Fm3+a4mX1jhTavx3eC0M/2cUqNdYRbbx1k7WH9yhox/E53zQ7hle43wQ3Pg5nokQh2QbWau8XR8nmSZiEFPpP5XOnuE77Bd2x+HwgzGlUQn8ykw2DEWlnhUnij7r//fplIMHHEc1UIIM5VkCqKBwZVr4VMKS4YxLNhqRl990jrnz9+Z90RUWvQuEi1jhHDSHwaFjwEBBZyXO3EmJoLIr8fLpaZHveCeMLFjeUdCyKWVZ7PtlgFse7RJQaLIxdaLD4kawDW93yAY+T9bOY+f81973mV6XN4t88Ug526b/ZFT3IjGrEqZ/M48RpmP6ncdttg6z/ORxo5Ykf3JT8w+Tiv6kXSASoVHvPGCicBfgcIwjVr1kg4E8mjWDC5j+WY+yT6YUHu3r27NXnyZLGE42XgN0HIB65+vmNEKx6ossKlsMITBoDQrVevnnXGGbuX28pHiB9PjY32gwpSJbEw4zSDfhDMRVQpbLAolHdCMnvW49b3331jDbvjDndNevL9fOECQUwitVhHjRollk6EIbHBXBCxzHGjNBgXVurUIp5IhiNMA9dxusdJ7MCCQ4wjF1TiIrHo4eLmdbAAkeSBu54LNWILayFZ3lj9sJgSZ5kP1neEFaEstK/Eqrlw4UIRBnx2RALueT4zdX9xwyIY030Ojg8xpoTNQGoMNqEQJLesXr1aYmsR67j2EZ+02+T4YUVFyGbzOCGoUgvjexk8eIj1y8//dgTw4+6azGABO/vM8zPujwlMNiaD+QQGDuLwCVfBUkxiE+cF96lewX1CqojN5fsmjpRJHGAl5ZxCkBJ7TFknqh2UFS7Fbw53P7GqTz/9dCB3fy7BixImoVR72SuJheQLZp6Z3NCZePTRRyVui4DybEMMENYDb2ZznBhXWq4GNixFuK/i6GXfsWNHEUFklIehWrVqVpUqZzoXl12TPlKh4QDJJlhBoiBoL3tizhBOQeG8YBLHxQQxby4oCBkuxpkexxLCsjc7HcGCGDXbIU64j9XM+3vEYse5yD5TIbufONSo6pwSkzl27NisWJ1K+xzA56c0mB9BSeIi8YneC3qm/XOOkuXtp5c9SWrEqyK0S4OSVi+99KIz6VjurtkV6rRyLpZ2jvXq1Uu6QDFhCQLWR2J0mRRkG+1lH18ve8Q6427QXvYqSJXEQkYkVgrvhdIPUQpSRDLWpVxlZRuLBqIwFyBUEG9hRGJQQUo2K1nMWKaiBOsFRdKjSviKS5DmG4UkSHNFEEGKBZiExkmTJrlrogNLIJbwoMdWBWl0xClIGQupukFiYBDUZa8kFiyRqXFzuYYadCQA4KLLxY1yM9zSPRbHDbdVWItlvoLIxsWmKPkMtqe4qkHgatb4/eKFpL0wqIVUSSz5aCHNNUGtjPlEGJc9hamJxYoSYgmxOhEbFgVqIVULaSaCWEiZCONKjaN0G3GztC42LYr9EqWFlFCDQYMGyf5zAfVnCccgVjgXENtMyBZtg4MS1EJKbCx1U/n9BkEtpEpiwS0dpjC+JjUlA6xBcXyPxPqV1Q5QUXIN41pcVkvijsN4p6Ice2mUwi1XUJ+XePNcQTtcmj3EAd99qO/ReZKiJJJ27drZ27dvd5f88+ijj9qtWrVyl5LFwIED5VaIBH3vffv2tdeuXesuRYdzkbFvueUWdyn7DBgwwL7tttvcpdL56KOP7COOOMJdipbPPvtMPvfbb7/trtmVX375xZ44caI9YcIEd00w1q9fbx9zzDHuUvapXLmyvXLlSncpWpYvX247YsBdyh7nnXeevXTpUnepdDZt2mR37tzZXYqWfv362atWrXKX/LNmzRr7pJNOcpeSxdy5c+3LLrvMXSosFixYYNerV89dKpthw4bZf/3rX90l/6iFVEksmTJeFSXbhI2ZKmTIGKdkEdnj6eCYkFkfhfu10KCOJKV/cgnWxzC1IcNAsfeklX1S/MN5Rmx9UFSQKonFmXCFclFF6TZS4iOuhDbOlzChIbmGeDKOEeLBQLH81HOfdanigudRwqm0+GyOS2ooA65caqIWIqnvnWPCMeQ4ILy9pBagR7zTPhTKel5UQq6sOqTZhGLuYQSJjr3JgDFDBamieKAfsw5uxUtcnWIQZ6btX6FAofojjjhCkrHoKkMCIGVhKHxPT3rgt0MnJwpz0zFm1qxZsp44OMr6kPhHCTOgOD5FvYF6rBRzB++EkMLevB7JWX379nXXFgap750EIbrw8FlZprQYViHEJL3o6cRD2SPqfmIh5hgPGDAg4/M4fzjWtAalAD5F0rMN52m61qFRQCvaQm2nq5QfJqphKjqoIFUSC1mNSvGCKzkqa5MXhFuhCdJKlSpJLdxatWpJNQk6ElHEnPuIJn47CFREDNnSdJ7p0qWLTPIQrYgn+tObLGpaIJpjTQ92npfKiBEjxFKI4HrkkUfESlgopL53+tTTUYlOVnRfQtzTi57SZnTDqlmzphwTCtwjOsmGB9qupnsexx1rKUKO7GTqRWYbku94/TjAMu4t7K8UF4hRKoMERQWpklgogZPuwqgUB5RYSXWJRgGu0ExxlPkMFiy6KQHCycRcI4pwt9Gr23gYaHPINognSkoZseG345eJKcRyStkdirRTq7IQyPTeiZE1nx+LEAKbEmOIe1zvCHuEP3hjjNM9j5I8lOviNehd76fEVxhobRkHCJJCDGNRsgNji9c74hc9Y5TEwkUkjMte45iSQVxuQ6yj3jjMQoFz3Jzn6e7TP/2VV16RdYDVC8seVlIsgQZ+Zwhb45FAzBprqdkXYpae8G+88YasJwwAIV8IlPbeU48Z5xxtgalNS5hD69atd3nckPo8alMS9sAEmkkUfdGzDd+J3wlEeWHCEkaQ6NibDBh3w0xIVJAqiQV3WDFmPys7wBoUh5UGMYYFsZCg2DyWvGeffdZ6//33Jdnl+eefl/skpCCoiIXEaoprGZc9Nz7rnXfeabVt21YK9rP94sWLxf2PmEKMPffccxIDiYgjxvStt96ytm7dao0ePdq66KKLrNNPP136qhdSjGHqe8cCikBdtmyZ9dFHH8nnRajyOc2xIsSBJg7EMnMciCXleKV7HuKV4042fr169SIr1h/XMTdCWylOQn//zpMUJZFQS/Sbb75xl/wzbdo0u2XLlu5SsiimOqTXXXddbHVIqbsYFbmuQ/rll1/a//73v92lHVDf98cff9ylzu8vv/wivzdHgMlj6fjhhx981wbOtzqkft7766+/bi9atEiO2YcffmiPGzcu0Gs4onS3Y10aQeqQfvzxx3avXr3cpWihPi3HIijvvvuufcIJJ7hLyaKY6pCOGjVKnhMUtZAqiQX3lHOOu0tKsRGnBS5MAH+hQAJPqqX5//7v/8Rayl8Dxxv3NsfCxKamQuyl9zmFhJ/37lyErQcffFCy8levXi3hDSaO1A9YmqOy6uMOjyuRjMoBGr9fvBB2Eub7V0GqJJaw7nqNY0oGYWLYwsDraEaxAoQxkJGPqETI9+7dO29CExjT4op1pl5rmIRCHXuTwbZt20KVGFNBqiSWQivFo2QXLohxiFIuoGoNUgzErrdo0cKqWrWquyY/4PdA5ZE4oDB6oSStKdmHCVmYsXcPZzDV6YiSSCjRQuZqUBchNQDnz58v5VeSxq233ip/SbYoNIK+d5JKsFAdf/zx7ppooAg6NTspdh4FWN1wg/spBUT2O0XuSToqdLDmcWzXrFnjrsku1ANt3769JBIVKvwWxowZY5177rnumsxs3LjR6ty5s7VkyRJ3TXRQq7ZNmzbWmWee6a7xx9q1a63LL79cymAljXnz5klzhSeeeMJdUzg8+eST1gMPPGD99a9/ddeUzrBhw2TcbdCggbvGHypIlcRCVixCobT2hulQQZqfBH3vjRo1kuecdNJJ7ppoQDRNnTrVuuuuu9w12SWIICV2jw5Bl1xySaQVBigOT83NKlWquGuigeLyxx13nLuUXShYT7F74l6jYsuWLdaGDRuss88+212TXQ477DCZCPnpikN1AM6hyZMnu2uigy5UTZo0CVwtQAVpfhJUkN5zzz1SNo4mGYFAkCpKEqlYsaJkuwbFEaR28+bN3aVkUUxZ9jVr1rTffPNNdyk6yHJu2rSpu5R9gmTZx0Xr1q3tKVOmuEtKJhYuXGjXrl3bXcotZNl369bNXYoWZ9IYKsueqhiM20mkmLLsR48ebTsi1l3yj8aQKoklXXawUjwcfPDBsWS/EytVbPVunWtHLPG5SnbJVP0g22hyUnHDeBjm2qtXayWxHHTQQXrRLGKIHY7j+6d4/AEHHOAuFQckcelkr/CIazzUcbe40bJPipICbfyU4oW6kXFcGHmNuCxP+YJaSAsT2rrGAfVO1UJavNCmNsz3r4JUSSwIkjBwodXBtPCJy4LH6xSbIFULaWESlyDldcKMoTr2JgNqkNIyNyg6oiiJhVmaUrwgmuKw4nEBLTZrYTF+5kKH38Pnn3/uLkUL1QXCCBIlGVCyjS5lQVFBqiQWCjPrRbN4YUAME8cUhjBdaQoZFaSFBxP0r7/+2l1SlOiglBqtu4OiglRJLMzS1P1TvFCTMw44x4pNkKrLvvCghemBBx7oLkXLfvvtF0uFCyU/IX8jzPevI4qSWDZt2hTKQoblR4Vs4UMh8Djchljiv/rqK3epOFALaeHBBGLfffd1l6Jlr732ClUKLWljLw1WevToYT333HPScYwe7y+88II1YcIE69prr3W3Sh5MfsJMWFWQKokFC5kKy+IFl1EcVryff/5ZBamS9/CdhXGjhgFBomOvZdWrV896+umnpWsgXbKWLVtmVa9e3erQoYNVt25dd6vk8V//9V8qSBXFC3VIi61gubIT3JMMjFGDa4omDMWEuuwLE4RiHIQtjJ40OAa0/k2FHv+I1KSiZZ8UJYViEwnKrtDfO46LIhffP/zhD+5ScunZs6c1fvx4a/Xq1RIzi4UUYfrUU09Zzz//vLuVks8QXhIHWuFkJ61atbKOPvpod2kHQ4cOde8lk7DJpCpIlcRCpl8YNIY0GWANCjswBgHRWwwJHHXq1LE6depk/fnPfxYReumll4oYb926tVWlShV3KyWfiSv5jsL4Gr+/g1QrKdbRCy+80F1KJoQxhZmUqCBVEou6jIqbsIH1YSgGQVq7dm3rtNNOc5d20r9/f7FGK/lPXGWfKIyuVtKdeK2kd9xxh/xNMpxnYaqc6BVbSSxxWMeU/IVuMXGdA8Vy8UV8eqGHP1nESv6Duz6uwvhbt27VwvgejJUU6+gFF1zgrk0ufPdhrPEqSJXEgtsoTCawuuyTQZwXxGIRpA0bNrROOOEEd8mSi2wciWNKYfF///d/oc6LXI69AwcOtA455BDr8MMPj+TGZO7DDz9M+1i2boQCMBnINdShDRMyp4JUSSzUfFNhWbx8+eWXsQhFXuO7775zl5INgmHAgAFy/7DDDrM6duwo95X8B4F48MEHu0vRQr3TQpuozJs3T+qDLl++PJLbK6+8Yr3++utpH8vWjXFow4YN7ifKHb/97W9DhUupIFUSC4XxNY6peEGQxpFVjGuK1yoWmjZtah1zzDFSV1G78RQOTM4pWB8HnBeF5p3itQlBOfTQQwv2FldZr7Lg+w/zXvZwvnw1ISmJ5IwzzrAWL15s7b333u4af8yZM8eaNm2aNWvWLHdNcrj11lvl71/+8hf5W0gEfe9kf/fr128XF3MUYPkYOXKkNXv2bHdNdsEtzgCPAMw2n332mdWmTZvA4gEBzu8qKYmDTCo4vtmuDfnMM89Yd999txRHzzV0Lrvzzjutu+66y10THbfddpsUfk+XBFcaGzdutC6++GJr/fr17pr44L1iIa1UqZK7pvA455xz5Ds+66yz3DXZ4cknn7QeeOAB669//au7pnTGjBkjSVyXXHKJu8YfKkiVxFK/fn3r0UcflXimIKggzU+CvneSbbp3725VqFDBXRMNf/vb36Q+53333eeuyS5RCtJRo0ZZK1euLHrX+9KlS623337beuKJJ9w12SGfBOknn3wiYjSfBSkxljVq1MiJ2zlVkJIA9tJLL8lk5dRTTy11Yvvxxx+Ly3zt2rXWjTfeaP3ud79zH4mXQhekmMcVJZG0adPG3r59u7vkn9mzZ9uNGjVyl5LFwIED5VaIBH3v1113nf3ee++5S9HhCFJ5ragYMGCA7Vzg3aXsMnLkSLtPnz7uUvHiTD7txo0bu0vZY+HChXbt2rXdpdziiCa7Z8+e7lK03HTTTfaqVavcJf9s3LjRPuqoo9yleHFEp/yWvQwZMsS+7LLL3KXMtGjRQv5OnDjRXrdundzPBWeffbb9yiuvuEvZY8GCBXa9evXcpbJxRLHtiFh3yT8aQ6oklv/+7/8OFcekJIOwgfVB4TVyZRGJC6w/WNYee+wx66OPPrLefPNN95H8wJkQWN988427pGSCyiNxQIULR1+4S4UL3jVvFzaTvEidVQPnHaEG0LZtW4mvpgan91jzPErQeSt/pMadsw3HLLV+J/uh0LyX1P3nGz/88IOWfVIUL2HFSC4D65XsQUJTHHVIOVeSPPEZPHiw9eyzz1rdunUTN+zjjz+eddd2ebnsssus3//+9+6Skg7OUyqPxMGWLVtClV3L57GXsJyqVatao0ePtmrVqiVuaT7jgw8+KKWWHn74YRGOLBP21ahRI/mdTJo0SVzpffr0sa6++moRrxTHZ3JHmSYEbdeuXa327dtbQ4YMsU455RTrjTfekNckDIjt6JBmYtRT95+PfPXVV7uIdr+oIFUSC4ODCsvihRl6HEIxyRMYSuEsXLhQSj3hcSBLu2/fvtbJJ5/sbmGJZcdbzYJJABYSGhMYUcJv0StQsO6w3T/+8Q93zY79lHUceR2ey768FpjTTz99lwmod7/KDjhmcVWD4DtKWoUT4iH5TD179hRvAe1z8cK0bNnS+uMf/2h16NBBvAeLFi2SGpy0033ooYdEvCLOSHxE1BIL/6c//Umy4jlPKQV13nnnWfvvv7/EiSM+lyxZYr3//vvW888/b7Vr105qpOKF+eCDD3bbfz7Ce+XYBEUFqZJYtm/f7t4rbkpzZSb5GOHWikMo8hpesZUk5s+fn7ZPfePGjeVzYz198cUX5WJMEiCJIFh9SGohGYtEEBIhSPQ46aSTrC+++ELc/UcccYRYjkg6O//888X6c9VVV1nVq1eXizcXZfbBBZsyUyRqfPrpp3Lhvv3220UU01Of75ikMvbHtljFb7rpJkkiImPeuFKVHR4jr/s5Sqh3mrQwll/96lcln4njmM5lTlLTiSeeaF166aUiIhGt5ribCdN7770nvx+2WbVqlfxe2Pf//M//yONm3++8807J6x155JFWnTp10u4/H0EwqyBVFA+4UZJquQoCF35m6QxgL7zwgty4zzrcTEmFkkapsVdRgNUkqRa5t956S7rXpAMRiZUTNz7Wny5dusiFCOsp4nP48OHSJpG+1ghK7r/66quSxYxFifNvypQpUi+4cuXKch/RyT7JEuYv+8NNyu+Y98HFmP2TuY4I5aJNBjSdYWDixInWgQceaDVr1kysTelEQ7GC6DHHKWr23HPPUCFT+eZt4Bz0vh9zn7/mPtsYa/BRRx0lFVo454FQF++2QEclMtaBqgJm0pS6b/ZFlQbj+qYSRLr95yOI0TCNEVSQKomFOCYGi6AkzQXbuXNniUnCVWQEKfdZh1UqqXCRiON7xDUdV4/wuEH04TpMB4lO5viaVoFYQCmIjXsfvJYSYjw5VuBnm3SksyQB62H16tUihgBrKwL2iiuuENHKLWlu5CAwrsUVZ4sYKfQxlAktdawpB4ZVk9AVJk+4zSkHhXseQYkHYN26dSIYmYhhvTz22GMlbhQ3PB4EykKZREAs/0zgsPAzsaLj2XPPPSfnLtvhwsfqj/hs0qSJnMNYURGy6fafj/D7DhMupYJUSSxYYcLM0pMGbh9cpqmQmZw0t5oX3IZG9EQJg29SE2qo5coFlwuxAaFBMwAuivw1UCgfAcvjRoyEvc/3ZkJNEKheIVna87iIm/rBPA+X6NSpU+UCz80I12IlTPecMPA6hT72Mn4QssLE/fjjj5cMeiaexx13nEzyEaS40pnUY7EknAQQmwhU4j8RnVjredzUN2VfWEWxbt5zzz0i3klUwhpKbClxocRuM1EjqYnz1jwGqfvPR1Ity37Rq7WSWHDdqSDdAYOm112HdYn4vSSDpSzMoBgULij77LOPu5QsiO/kotiiRQvJAEbc4VonE5hkCyybWHm4SHIjuxY3/7Jly6Qz0LvvviuiFUFr7mNtYpkLMtZXLvJcXLmPhRVLE9YfLsr9+/cXi9SKFSukew/igH0jBljG+sTFGWsW+6DAv7n4t2rVKnBh9qQTxmoVhrAVLpLinWJyVloMJRMjv9bNfffddzf3d1n7L1S0U5OSWLg40YkmaKemuXPnykWX0hpJYtiwYSWWUpJRuNgXEkE7NfFZEU1Rd2pCgFEKaejQoe6a7BJ1pyYE4YgRI9w1mSG+E69D6sUREepN2sgWJCzxWiSMYYEOIqYQtrxXv88hHpbyOjNnznTXZId86tSEe5n3glUuakgsoywR1Q+CQDepatWqyYTDL3xn2YgV5/fF7zhdEl+hkC+dmogfJ6GxXr167hp/qPlISSzF7p5LhRp4CAduvXr1ctcmlzit48VwrpFUlCpGAetwFMcaCzdCnFJTQS17BxxwQGzWwEIiruYBJPnFEa87efJkmUwR31nem6nSoJQfJpOlxYJnQgWpkli4IIW5KPGcXDkOuGAQ2B7FjRqEWI2xGnI/3TbZuMV10SuLuC4unC8aGqLkOwhEKo/EARbqMIIk6NhL2TqqMDzyyCPlvhGjaRLmlPJBTWEVpIrigeLchRSRwnu9+OKLpTxOVLcZM2aIezLdY9m6Uc4nTPxYtomrNijfm1pWlHwHQRqme04YCLGIK4GqECGWOskl9/DCmWoXQVBBqiSWfLHU+QURR9IGsV5R3YwVM91j2brxGfJBkBLbGIfbkM+Ki0pR8hnCLTLVlM02JOIQbhGUXHqn4oR+99mO88wnTLhNUFSQKonFFNlWihPcht72klGBddQUqs4nsmEN43Ndf/317lI4srGPdFAjctCgQZJpHxdMcAp18oHYIzs7DpKYAZ4Kv3tvpzvjkcNdnUrq+ECGvSnjxDlFPd3UdrjA8+KYVGcbJj9hwphUkCqJhR94mNl2sczSkw5uozjchlxE8tEaT8IHhbUptxQUKgcAtRApxF0e/OyDLGnaIvqFbF/ioLt161ZScDxKEB+4WCknVajxwoxrcdTlBQRpkuOqqZpABzwy82ljSzF7CtzTKYw4fVqDAmKSmH3q4bKOlrgU2qfk3oABAzK2w+X3QCUUWoOec845UuKsGFBBqiSWQw89tOCznynJQ9wn9R/LEhYMimPGjLEmTJjgrilucBvGcVHk4puPHVO4AFIknk4vl112mRTY9gMlXmhPCPx+TEFvAxYgr9WmNAsPpO6D5zPh81oaKW21YcMGdymz9cl0ZqKzDeXcOO5UjMATks4inDpRSN1vWfB5KFqOixWhQSmbQm0mgSCNK66T7yrJxgAy+zn3EIskRHFeUG2ifv368tuhGx7wm6OUVc2aNSU/gMkZopPSVpCpHS5lBzn3iMU9+uijpSRZIRF23FVBqiQWCsEzwBUyFPdndoywYNDLBMJ1+vTpYjGiIHkhunmyDXFMcQhSLvJBa93GAecOtTiBIvMUiacuYGnCFFGJIMXquGTJErECkagGCAWsNrjIO3ToIOdkJguPF7MPxGTXrl2t9u3bS5F9iusTb8z5So/7RYsWycU41frENrg3qZ+JACAhBIsT2/M83i9F+dkn9S8BEcBzeQwxgBBN3W9pcByY3NH5iR79xF0D7UcLFUR7XOMCr1XoY28mTEkrrP4tW7aUpgxMUph4kaXPmGPKo1EDmSYQuN75rZiJmddQYp4HeHX4nWB84DfDayBwo6hBHCX8fsKEy6kgVRILlqtCmG2XBWKHgcqQzsJEJxsGNm4UjudvavwRz2OQYLCAVGtRaZYuBuFU8j2+KUxQfRg41lG+FsXF77rrLmllGPRGYpcXBBrCFLGVDn4zdGdCWNaoUcOqU6dOyXdMdQbOn7p164oARKgRk5jOwuPF7IOLNuIVyxIXWNyXiF5cnbRTxILEvlKtTzyG9YmLM2L67LPPtipWrGjVrl1bEkM4h+nKhNgmrhT69esnPewRDDzGeZ26X2NtTYXzmmNE21Rvy1S444470h7nTLfWrVvLsckHUseMKKHkTxLG3nRg5aR7GBMlYILGWArmM5u/WDip/0z3MSZxnA/A497j430eNyZC999/v/zeGIvpnV9I8J5VkCqKh7AiIV/dRpksTHQ1IaZu9erV1hNPPJE2/gjLEPf79OkjA2SqtSiTpYuBFqsT21900UXSg7lQ4psQQXF9j1FaYhFiiDy+66C31JamZ5xxhlwc/baNRWwbli9fXnI88T5wYSZxjG1SLTxevPsoa9tM1ieOb6b2rFiSEJi47I0w4Ldgys60adNG3ne6/aYDkb1y5Uo5x1Mt39dee23a45zpRrwgv9V8gHEtXcJNFBDfyzgRlHwde1MZPXq0jIdMFrHw0/aWyQuhJHgXOI9x21P31bTVZQKHsYAJ/8svvyznBs/jPElth4t45bdFqAgTLX63hQQT4TDnmgpSJbGEGRDzmUwWJqxS1atXF4HasGHDtPFH1Ablgs3AOH78+N2sRVzs01m6CNLH9dusWTN5TQREuv3nIwiQOFz2ccB3EPSGINuyZYs8HysjLRYRWueee66sywSiwGvxMQLh2GOPFXe5AeHGeQJmG+/2htR16bY1r5nJ+pS6D6wvfL+ABZRe+7hDzTZYmEwbUC7yTK4yWbXSgWimtS4igQmaSQZCJKQ71qXd0nW3ygWMh4QyxAGxu6leliRBsiCTGgQo5x9jJwKsQYMGch4S88xECZFKMhztqLF4EjPKZAmPB8/Fpf/aa6+J5Z3fEqEoiFbGes5RQlIwBphJXNJRQaokFgaFpFGWhQnSxR8hzNiev2XFQIHZt9fShOhl4C2U+CYEuBEtUYIICtOVJGoWLFggEwYS4phcmMzfssAdjmt//vz5YuXBer5u3TrJFsalz4TFWH22bduW1sLjxeyD84aLMOcUMZkk4eGC53xkIkSMKNn9qdYnhCSWJuJggdfBCsXnQ3AT14nngIs+sdRYgG+77TbrvvvukwkXsdUHHXTQbvv1k+DD7wCxwPvFs8Ax8QrjQoLfflzChsku50qSYcwsK3acc5SkOEQl5z3XpNQkwdIgBrwQJ9X8bsKcaypIlcTCxTIJYA3yXgTNff6a+16LUbr4I++2fmOguLEvklcA0cUMvlDim/j+4xCkkI+THyYPlFJi0oEF0i+EayAesfYgYhGDWEexEiIKr7zySnFdX3jhhSI80ll4vJh9kJTHxfmZZ56RJKWHHnpI9sf5SDIeSUpY+VOtTzwPFzCud+B1ELNjx46VC/add95pzZkzpyShDy8CApcmDQhIyutA6n6DwOsQd4vYJca0EEGAx1UYf6+99tolVMMvheKy9wvVI/BGISrxQvXu3Tu2Sge5BDEaxjOgglRJLFycwgiSfBoUuYCSqEG8Ebd0FiY+J1YorFQIzXTxR4hOnmNqNqZai7jIprN0UeqGx5jVcxEn2aNQ4puw8MYhSIkJ43jkGwjLsBe/0p7HhTUKq433Nf1Yn7wYl7r3Isj+iHX1EnS/qSCGM8WyFgLG2xE1HOdCtOxFAecMISX03C8Wwn73ezgX3uRMRxTFAxm4uEqCdicxbhasK3GCeOLCmq3YK9yZXJAzDQ4INuLK/FygEVxYibyWtkz7J5kMi2G2LQG33nqr/E21wGWibdu2Ev9H/GSUYBUkGYws9EJj1KhR4ubGilPM8N0RC23iTpMIE00moliUo4aQCaoxMIENAuciz2Ei7gfCPPhcxGSWBybrhH5QuxgxHQWMiYQRHXDAAe6a7MOEjPMYj0Y2IYTngQcekORZP+C9wJNGJYwgqCBVEguuQgLKg1pEgghS4t9uvPHGrIgvXFy4BQs9GSBfBCkF0zt37iyu6yjBYs1gTcxioaGCdAfFIEgRXZyjw4cPd9dEBy1dEaR4YIKQK0EKJsYzKisy3i1CVHjPUUGohGlJmk2CClI+I6KYkm9BUJu6kljIAg9DEJc9ljEyV5kNZuOmZA8uLEFiJ8PCa8TlClWUsBDzHVfyXdgKJ3iJwsSeZgPijs8880zrpJNOiuSGUCReOt1j2bpFIUbDwPcYxtapglRJLGFdL0EEKdtSRodg9fLerrrqKnevSjaIQ4wC50q2rcHFBkJp3LhxpZYQe/bZZ0sSlJRwpKvKEQWUQCr0+H0lPJRZCzMpUUGqKEpiiUOUEkOrgrR8EPtG+AuFwjNBRyfCaZRwUEnDr8u1vFBVIWl1oBX/0D0tTFcwFaRKYglrDSiWWTpldyjZk1T4/uP4HnGFFvvFl2NA/B2WTtOalmNi7huIj2a7VFhXVvJhuux2ykEp/uC7ictrEBa1kCYDwuVM5YsgqCBVEkvYNnnFMihSNDzJcat8/3F8j++9915sHXDyERJRqElKZjV1F6kbiiWOZD/i2kxJLDqCUS+ULO/rr79e1lErlp7xJHzMmDFD1lHOjFg7oAwZmc/gFVO0sKX2KS5+XlutcWXDMTLHNWqovhGmdbMK0mRAYfww378KUiWx0LYNy01QCmlQxC3itQRjaeK9p4px1uFG8UI5JJOMk+l5UKhWqM2bN+9moYsC6rjSiahYoT0mCSGITzK46eJF7VqEJ/dpf4gopeWsaUFLy1vEJvebN28uXb/q168v+yMz21TGID47XccXKi6QwHHooYeKq599KaWDQDDHOGq0MH5xQwiTdwLpFxWkSmKhn3KSBzdKU2FxatSokfXEE0+IZYk4O/rPU9DetIqkhEr79u2ljznFmbFc0cUGsUB3nEzPK3QrFBfgMINiULjwFmr3nmzBBci46LDCmbaRuO5wFa9YsWKX3vE0WqAdKc0XEC8QpNUgVmnOU4QsdWA5P5XSYVLA7zwOwljHlORATHiYCYkKUiWxMPjmqoRI1NCRCTHJxb9KlSoSD4pliTg7rCD0mKd7E3Af13zNmjXFqoQoPfLII8WiBZmeV+hWKNpahmlfF5TUbkDFCBM/M/lLd5+uXghHI0qxXNO4Ausq1lKDycxG3HLOsb2ZCHn3e/jhh0tdRGByxeRJKR2OE7/7ODDfk6IEQQWpklgKucVfWdCjnILvWIgGDhxoPfXUU7IeAY6licxvI8YQoPTgRgRgNa5QoYKs94r1dM8rdCsUlrdMXaqySY0aNSLvBpXPENLx1ltvyYSF8AX64L/yyisSMmPuH3fccVafPn2s7t27W5MnT5Z+8xwz6vjSDAKrPT3uOc+IK7344out1q1by0SLsBtE60svvST7JBOfeNWRI0dKe9S7775ba/j6gOPG8YoDBGkc3gklP2ES6fWI+EUFqZJY4grgzwVcgLFmGlcxNRoNxjph/lasWFFauLHN9OnTRRwAj3stGanPK3QrFG5k7+eLCqx8nGvFmthE0tHzzz8vwhCvBJZ7OrVgWTf3+S7osIWIJI60W7du8lyspEx8EKR0VaOsExZnOgoRQsJ269evF9F/+eWXi1hlQoWY5XzknI6y801SIPGM0An6qscBce1h4veVZIAYDTP2qiBVEkvY2pCFEFiPux3LJe3ZyJbHPf3OO++IBYmM5TfffFNcnrjfSSqhhzXtIa+44goRpVi11qxZI5ZTrFvpnlfoViisvnFZafg+OJZK6aQrB0O8KVm5qRZt4+HI1PqX75fzXimbhQsXloToxAE927UwfvGCoSRMlRsVpEpiKbQknKAgFkkMwTqFaMSFzyDQoEEDSRohc57EJYpUI5Yef/xx6flMchNWLUQnvcxPOeWUtM8rdCtUmAtiWOrVq7eLlVpR8gm8KSQ/xsVXX32V+PFXyQzhYeqyVxQP/CiSHsdEMXGT0ZwJ6j8Sp0csHxn1Z5xxhvtI2RSyFYqSWHG5DY8++mix6BVaowFijydMmCC1Q4v5Rnyria1OGk8++aT0aI/zd4wlPKyHSil8ONfChMztYat9XEkol1xyiZQsyuTyywRxb9RQxM1VFjfddJP88IiBKy9Y9HBn0s0mm/AT/9vf/iaJUGTUR33hpeQLVtZsX5DI+gdiEf1AUgwF2ONK5KDyAVZrynEVCliysLIH/Y0kEUJSkliuqFatWjIOltUJK5v07dvXatKkSaDJL2zZskV+r8S8+gHPzUcffSSen3xn3rx51qRJk6REX6HBpIZ8Ar+tZwkRI14Zr1sQVJAqiYVi3dQ5DJptn2tBSuJGIcPsOB8EaZ06dSQOFhEeF1wgDzroIKtp06buGkXJHYgIqmdceeWV7pp4oGPXZZddZp122mnuGn+oIM1PggrS+++/X5Ji69at667xh7rslcSCK7uQXPYMrLxfZpZR3cgI55busWzdKNnjLSmVK4iTjaMOqZdevXpZTz/9tCSJKUouIVkRz0jcYhT4/autq3ghOTHMtVcFqZJYDj744FB1KHOV6UkcIokAZChGdcOSyy3dY9m6UbonHyYCCNJcCGPKFXXt2lXL3ig5g/j5QYMGWePGjXPXxEtYQZKrsVfJLoSdhRn/VJAqiUXj4oqbspK9ogRRTt3Mjz/+2F2jKPFA2ba2bdtas2bNctfEDzVPVVgWL4hRFaSK4mHPPffMC0udkhvi6mWfCWLF7rjjDokdU5Q4oLwbzQQo85TLcx8LrQrS4oUcAi37pCgeGBB1UCxecu0yRxAQ3E8HpxtuuMFavXq1+4iiZBesoiQSYZmfOnVqzifiNN7QOqTFC9U7aI4QFBWkSmKJszC6kn/QvjAfJiQ9evQQFyqldwYMGGAtXrxYXJqKUl4o2YUVnvI6tGEdNmyY+0huodFGGAtZ0iCxbPv27e7STrg20dAkqVDZIUwJNS37pCSWxo0bS3/soLGkCAbqST7zzDPumsxks+xTHAQtnZRPBH3vV111lXX11VdLB6t8gfauXIi4UJF0R2kUymRR7ov2mX//+9+tzz77TBKyuCFcuXgRfkIZLa/li/XcTImt3/3ud5JMwg3rMNsiCrBUceNxtjMZ0DzOX/ZBEwEwYS5sZ/bBX5IUeB3icrnQmPfC880+eK9sxz54DW7ebcw+WM8FKzXxhdfB1ct+OB6mSob5PGYb4w6k+Dr7Mvsx2/AYgoj3yOvwGNsB2/BeeA1ei8dNJQa24TGzDfvgr2lpyn7M67Ce1+G48Xz2A2Y7jgfb8Bre1+ExtuExsw2vw3pz3Mx+zDY0W6ByBeuYZGF9xOq+YcMGsURRXol45Xyie/fukt1fpUoVd40/6CpHi9MvvvjCXVM6+V72af369fJ5zj//fPn+WKYzHu2cO3bsaA0cONDdMr8JWvaJsokk6dLeOggqSJXEwiBA/B4X+iAsWbLEGj58uNQjLQsVpPER9L1zoWbbU0891V2TX7z77rsiKhChn376qQgdxOg333wjgznnFfcRcohTr3hi2DbiDVGCgGN7tkHUeIUX7lxEHBMzRA/bGoyoojoCULOXx411g30gZhFNvA7ijNdhGyNaEU0IJV6HfRmBjaDkvfAabMN7QEzxGUyHMV6H1zCvwz6wKJne9mzLjefzWubz8veAAw6QfRjhyja8Fo8haHgPHDdew4hBjiWvw3HFpcjnNV2F2MYcV268V17TfB4+C9uxD16Hz4yA4pjyeXg+jyM8eA22874On4fHzXHjNdiOffActjHfHzc+D9swQaa4PdvyGvvtt5/1pz/9SYQONW/zEcZFWpUGrQFMDWY6Z1GP1A+FUIf0iiuukJheL5xz/O6DXptyhRbGV5RyErYwvgrS/CToe69fv748J2hxbkVRyge/UX5/QTs1JVGQYhU97rjjZLJjuPnmm6VpR6EQVJCyLd4fmpMEQWNIlcSCEMXyoBQnuMSxbCmKEi/GUqxY1jHHHCPhYwaso9ddd527lEzwAHALip4xSmLB1YabTilOGPiDgGu1YcOG7pKiKGFBjKjzdSfEipprEUmOheKqD0vY714FqZJYkv6jV0onSJYn8Y3EJL788nJ3jaIoYSH2VdkJYQgk+JBYSAm4pEO8MzHQQdEYUiWxdOnSRWJBg2bZP/vss1JKhWSCstAY0vgI+t4psdSiRQu5GJQGiTgHHHig9be31lpVzzrN2rLFX4avoijp6dWrl9WqVSurcuXK7hp/kEhWsWJFSfTyQ3liSD///HOpdhEXvE+uLR06dHDXRM+BzrhGVn95CRpDyljN99isWTN3jT9UkCqJhX7iCFIEYxBUkOYnQd8730nr1q1LLftkxOgnn26ztjkXwfPOOcP64ovP3UcVRQlDkyZNxDVdrVo1d40/4hSkNWrUkGoJWC3jglCGOGNrEd2zZ8+2jjrqKHdNOIIK0n79+lnHH3+8lP4KBIJUUZJImzZt7O3bt7tL/lmyZIntDFbuUuk4Pzz79ttvd5fyn4EDB8qtEAn63q+55hr7nXfecZd257vvvrN///vf219+80+5vb/+7/Yf/3iA+6iiKGFxJoL2smXL3CX/OILU3nfffd2lsrn77rvt3r17u0vBcAST/d5777lLyeTkk0+2V69e7S6FZ8GCBXa9evXcpbIZMmSIPXPmTHfJP2ohVRILNdAeeeQRddl7KCYLKd2RyGal/FcqWEZxZ3386TZ3jSX1LxvUrWHtt+9+uyTDmfvl+st/P9ul+QvcZ2n3x3Zd3uP/pSz7+Mu9TI9Dpsfi+gt+t832X/C7bVR/we+22f4LFN0POob26dPHat68eeCyT9SYpUQS5Z/8UB4LKaE8c+bMEYtsUvnzn/8sNVCpWVseglpI+T6wymphfEVxYTBEVFK0OgjPPfecNXToUKlHWhaFJkjJ9sRlRN/rQiOoIKUGHrX+UotzpxOjhvXr11mfb968S5aouV+yziw7/+RvyuPZ+uvc2fHXocznZOm9OHe8fwS/zy356/O9OHfcP2Vs51DWNhn/prwX5477x99fL36fk/rXueP+8fx19F6m7VP/Chm3kT9p1nv+pnkt5477p/S/mzb93TrqyCOthx8eL8t+6d+/v1SsCCpIadBAmSRc935QQVo6uRKkY8eOleYNdevWddf4QwWpkljCFsZXQZqfBBWkLVu2tPr27btLUH9pYlRRlF15Ys5Ma/HCJ63HHpvurvHHoEGDrHr16gVuSpEPghRJhCEjNY6VQu/nnXeeuxQdr7zyinRxy0byU64E6f33328ddthhcg4EQcs+KYnl0EMPlRZ8SnHCRIQC3YZ169ZJq8UXl6101yiKEgVel3+hwXu/4IILJCGHvxS1v/jii61ly5a5W2QfyiStXbtW7iPIzzrrLLlfyIQ5B1SQKomFns+FPDAq5SO1S9Oxxx4rvdKbNqpvbdy4wV2rKEq2QWCFcb4yXueD05YaxtwYQ377299KTWuqtpQFFt7U+puMOWWBx2rDhh1jEg1dcHd7+eabb9x7O/juu+/kL8088hGqF4Tp1KQueyWxdOzY0Ro1alTggHx12ecnQV329IvGbZ+uDulRRx9tzZrzpHXEkUe6a3aw/OWl1gcfvG/tSPXZgZnU+P8rf0ru+H9e+r9g3k+Z25bxeNC/sNtj5thkeM7Ov/KnlMf9/YWS+6nb+DwuQf86d3b8dfD7nMzvRf6kWb/rX7PhbusdMj0n498yjotzx/1T+t/58+ZYLzy7yHr88cdk2S+EyjRt2nS3+O2yILGQZBiSm/wQZQwp5aDeeecdEaMPPviglLFCCHbq1Mn65z//aU2ePFnKyk2ZMkWMH5QYPNIZT0aPHm1NnTrVOuKII2ScJWSI5z/00EPWM888I2WYuLbcfvvt1quvvmqNGTNG9sN2bdq0sSZMmGD913/9l3ymv/3tb5JkS5jRE088YU2aNMn5Lh637r33XnHpP/bYYzLGde/e3X3Xu5Irl/2IESPE0hu0850KUiWxXHXVVfKjDypIn3/+eWvw4MEyEJRFoQlSxBxubIrGFxpBBSm18CjOnakOKReMeQsWWYcdvsMa8fnnm606F1e3ateutYuVxtzP1V/4j7lfxrZB/5r9ZnocMj1W8vc/Gdb7TG4q6y/Iff5n2jZLr5X6F8rcxv2b6ViaxzM9v6y/4HfbKP6OGnWnM5Z2k2W/YAxAMJ199tnuGn9gCeR3iaXRD1ELUsTlnnvuKUJs/Pjxch+rJMlaVB+gmsC+++4rj/3973+XmFkEI/um89uPP/5o9ezZU64pf/zjH8XiyrFhmaL8TJrZd7du3STekiSgGTNmSBwpn4n9vfbaazJmX3PNNfJa7dq1s2rVqmWtWbPGWrFihYyLTz31lPuudyVXgpSkNuqQMv4GwjnhFCWRODPZUHVIn3vuOfvCCy90l0qn0OqQOjN2e9CgQe5SYRG0Dun1119fah1SOOyww+y331kndUj5y7KiKOWjcePG9osvvugu+Yfx+g9/+IO7VDZR1iF1xKO9bds2uf/555/bP//8s9yHsWPH2pUrV7Z/+eUXWabmMdcNLz169LAdoeou7WD9+vX2BRdcIPfffPPNktqeXbt2lVqfMGvWLPlMjji3f/vb39o//fSTrJ80aZJ95ZVX2ps3b7YdQSzr1q5dW7K/dOSqDulNN91kP/LII+6SfzSGVEks+Rpfo8QD1glnjHOX0vPJJ59YtWueb23e/Jm7RlGU8kIcJLGXhQwxkGb8wNqJRRIr6KeffipeMbpQ4UkDwgzILOc5jki1XnrpJVnniEt5HBf/qlWrxEJq4kFZZ+JNCZEg7hJ4TW577bWXlCx84403ZD3bG4uzeV9m23wDr+T//M//uEv+UUGqJBa/pUOUZPLFF1/IxaEsuMDUuOAca+vWLSWxc4qihAfB5q1w4Rd+f7kWWLw+8ZokZhGriaua+FDCnBCUZN/Xrl1bXO9DhgwRlzjhCYw3xE3ieselz+OEHlSqVElc17jfqfKBaL366qslV2H9+vWSzESJQsIPXn/9devll1+23n77bYmjffjhh6WEFmEAiGHiVxcuXGht2rTJ+uCDD0T4ErLw8ccfu+8+PyDcgTjYoKggVRILP+DUjEeleCABwe/3v3nzZqvJ5Q1CZYYqirIrCLdCndzxvknGQZgSn0l2/Q033GAtWLBALL/kFhDLSewpE16SihBg1LwmSenpp58W6+Dvf/97WSaRaebMmZJMyg1LKbkNdJFDeB599NESQ7po0SJJAiN2FLHKa9DcY/78+RIzijWWMoZ0oKNHPR2tOnfuLII0NSs/1zAZ4bMGRQWpklhwG4QZFPNhlh4VfK5CvVAEBWtEELchXWnIpPVjVVUUJTNh6z8X+thL4lKqEMPd7x1zEWtYkE1ZKUMmizLryfQvJPi8Ya4zKkiVxEJh/DCzNCUZEIMVZFDEyoElJIyrSVGUneCZUG9D8eKNvw2CXq2VxBJUkCjJAreZfv+KEj8k6Ohvr3j56aefSpK0gqCCVEksWLqS6npXykYviIqSG4LEb3vhN6tjduFDhZMwoU8qSJXEUqxxTKXBMSmmRC8VpYoSP1u3bpUs9aAkXZBSumncuHHSYSkTJE0VYuMSL3Tc+v77790l/6ggVRILszSleGHwVxRFyRfw2tHb/v3333fX7M5hhx0mGf2FDB2tvAlbftHWoUpiady4sdRxC9o6lPId9HynvVtZFFrr0KDtN/OJoO+dmn29e/fO2Do0V+DOpNj1hx9+aP3www/SwIGe2du2bZOMWioD0HqQOCzOXQZ2b7UAYrOYbFHjkO3NNtw3iSS4y7jwsW9iqc0FgiQ/tuHGPtiG/e2zzz6S9cuNbViHJZ33Rz1E4nFNbUm24bLBPngdCn1jDSETmO246LKdSWzhc7AP7lPKxrwO1jBehxvPx6rC++R1zD6Ax83r8H54r7wO1n7zOtx4HWoP8/7ZhmPGfbZL9zocN55vXgeLHttwTNK9jvksvBcsgOyfwuXmmJljy0SI1zHH3nweYBteh33wPng99kFCHa9jLPq8DvvhM/M63Oc983zOE0oKHXzwwZLVTf90alzmE7S5pBxS5cqV3TX+4LjRt91vU5MoW4emw3y/fA98V3w3fJ/8Hry/Ub5fbpw/Xvhc1BSl9nGmcYzvt2bNmtLH3sB5zW8nKLlqHcr3QWOASy+91F3jDxWkSmI566yzpCYcA34QKDZ8yy23WC+88IK7JjOFJkgR2gymfL5CI6ggrV+/vjwnHy7WCAvqESI8KWKNkKD+IPUDOT+5qBo3Jxc8RAYXNIQHYgixAlwEuSiyHcKW9QgVtuF7NcM52yA4uSF2uFiyjXk+sH+EF2IO4WSEF7AN+2IbLqKILi6uvAbb8Rg3nsv7NYIJ4cXjbGf2wTa8V5ZNKTa2Me+FbRBgiBFEM++Xx9iH973wOJ+b98rrmG14HIyYZB3HzbyG972kex22A94n23FM0r0O8Bpsx+twrMzrANvwGmzD65hjz808n33xOK/D+zDH3ghWHgfWsx3Hjcc4fxBqhxxySInYYf/Uz6XeMsXVTznlFKtGjRoiQnJNv379rEaNGkmB+CBw7Plt8Ln9EKcgpfZn8+bNpVsS38/s2bOtu+++WwwXCLVly5ZJiadHHnlEfi/r1q2T723EiBEiMhmL+H7uu+8+q2rVqlJAv3r16nIu8VzEG8KTG9shSDdu3Ci97TlHeD2K4rNvv+RKkPIZGdv4jIFwfkCKkkicgcZ2ftzukn/owXz++ee7S6VTaL3sHTFnOwOju1RYBO1lf/nll9tvvPGGu5QbtmzZYt955512hw4d7Icfftj+4IMP3EcUJXs44tV2hJH0EHcmx9IzPZcwxqxatcpd8o8j0m1nYuMulU2UvezT0b17d/vRRx+V++3bt7cnT54s9zt27GjPnTtXet47YlLWQaVKleylS5faXbp0sR3RKetGjx5dMo4deuih8hfMffrn8zygd70jKGXfp59+uv3ss8/Ker/kqpe9I0htR7y6S/7RGFIlsRCLY6wXSvFBVxVjecoFkyZNEgu6c+Gzxo8fbzkXMOvYY491H1WU7ME4d8EFF0grS6x4WO44/3KFoy3ce8kCqzjWdcAzZtz0WMrxEqxYsUIs2wbahmIpJQwMKyekuvFLwxHMEnqG9ZQOTxdeeKH7SH6DR8B4BYKgglRJLPvtt597TylGuACEGRTLC+5e2g3CQw89JH2vFSUucN3Tgx3xlKtsbQSpCT9IEnwuI7bT3aeXPcLRiFJCNwgdI9xiyZIlsg5w+QPi1sRxM26Ad7+HH364uMqBmHNc+IUAn8UrzP2iglRJLEFmol4YSM2AkDT4XEm8UKQjSKxVtiD+iz7Y9Kmm57Si5IpWrVpZ5513nsQwxg1CLMwYms9jL7/tt956S+I9idt99913rVdeecXatGlTyX36y/fp08fq3r27NXnyZDn+eEjoXT9mzBjJNSCWHNFKXOnFF19stW7dWiauxBUjWslhYJ9k4t92223WyJEjJRYUqzeJQoUAYjTM96iCVEksuRAkSv7AgBjnxY1BmIsRCQDqmlfyAQTPueeea1177bXumnggmSeMhSyfIcudBCaEIeFgixYtkqQqWlSb+1ilSbpERDZr1szq1q2bPBcrKe53BCmVXyjrhAeP5J+JEyfKduvXr5dkpssvv1zEaoUKFUTMYhWlNin7LxRMpYqgqCBVEotxgSjFCWI0LmswGdNYRLm4KEo+QVZ4lSpVrDvvvNNdEz2U+Srm8ZeYUhNraiDelNJoqaFElBeDTOUJiQ8mHr6QMJUqgqKCVEksuI3CCBJ12ScDRKIpCRQ1/fv3l4QSRclHSHSiPNLKlSvdNdFiypUFJcljbzGBgCbpKygqSJXEQuFpHdyKFwrHxyFIiRXDAkXdPUXJV/r27WsNHTrUXYoWLIFhBKmSDLAGh6lwo4XxlcRy8sknS7kN4xLxC0HrlOshuLwsCqEw/syZMyUY/tRTT5XC+MTWUriabkGffPKJFLAuBIIWxq9Tp44kBZx++unumuxDogPfPUkJipLv3HzzzTJ5ImHm6quvDp34WRY03rjssssCN6WgdBLjtd/4w7CF8UlKohoBMZo0dIgLJshxVv6g2QbF/2m0UR6CFsYngYsJOs1JgqCCVEks1IAjCD1op6aXX35ZRMbSpUvdNZkpBEH6+uuvl3RMIX7JdIkBRClCtRAIKkjJXr3++usj7VxDUgIJDg0aNHDX7A7JDG3atNktpqxY4AJM9xqOk5JbOBeZjNJRaPjw4RnjFssLv1W69ASdDDIuxdU6lOdQpimuWsV0aCM5iXrEccGx5DpYXoIK0nHjxsnvHaNAEFSQKokFkcCFMOigmzRBCtTCpNyIF2av8+fPd5fyn6CClD729LOPspc9QhOXfWlwjpDkQRmeYgTRfuaZZ8r3oeQevgfaYD744IOh4vz8gGeibt26gS2kcQrSuCF7fvHixWKdJaShkAhjIT3iiCO0daiiGBwBYG/fvt1d8o8jSO2qVau6S6VTKK1Dly9fzsRzl1uu22oGJWjr0L59+9rvvPOOu5R95syZY48cOdJdykyhtZfNNtdcc43tCAZ3Sck1EyZMsM8555xQY6Nfbr75Zvv11193l/zjCNLYWofGCePQHnvsIeNu//793bWFQ9DWoc5EwZ43b5675B9NalISC7FBxZJRXhaUfvG2ncOVUiiu+rDgKnbGOHcpuxD20KNHD6kVqCiFBB4DLKRR/TaAGFDTjUjZ4dUxxxurLgm3SYYKN2G+fxWkSmJhAIhy0C00SDQwDB482L2XXJiMRDkhIYufGLSw0K1l6tSpciPx7O2333YfCQbvg1jZKKDjFEXOleRw9NFHiyCKsgIFISq//PKLu1Tc0MVp9uzZ7pJlfffddwURYlAeSKaiOH5QVJAqiSXsDD2ptfDOP/98sZTSvSXp1lH48ccfI/0eSVI6+OCD3aXgkGg2atQoOd8Qth06dJBEk6AQB3jppZe6S7tDRjUWC7/QHtFApjQ1JZXkQMchSjJFOVlDdIXp1JTEsXfQoEG7fSaaFHCMkgpln0LVoXUOlJqQlERCMegwgfv0JKYFJMlNZZHNpKbp06fLa0cJAfVklZI4ECXVqlWzGjdu7C5lh6BJTVdddZWUtokiqQnrEsdwy5Yt7prMlHaOVK9eXdbXqlVLSkchUNeuXes+uiPJg9CD3/3ud+6aHRd7BnxvdjDrjHDEXcpjvEeGdxLaSEoghIXH2Bfldcw+sZaZJAu2o9zZsGHDZNlsb8QLr8OyqTHIpI+OLLxHbukylmlbefjhh2tSUx5BuaPnnnvOOuigg9w12YVe7ldeeaWUmAoCk0haapoqIGWR70lNH3zwgVT5wBgAvFfKETLOd+3a1RowYICsz3eCJjUhuLHElzZRTodaSJXEsnnz5kjdUtmECztlio477rhIbxdddJGIxXSPZetGH3cmA7kGsRjEMhgEBFrNmjXdpfKDqKMKQsOGDd01lkymqCFIndgnnnhC1iEUWUdnKLJ2ec6kSZOsCy64QB7ngvHCCy9ISMbChQslDAAL6ZQpU0SAUBuQi/g555xjffrppyLYn3rqKel3zrHiwvPmm29aS5Yssf72t79JpiyuN4Qt+6SuL5bcWbNmyfPPO+886/bbb5ei61x4/QoJJbdUrVo1shqkwAQsTGH0pMHEj3hdfqedO3eW3wi/Heo/Mw4nldAWeCykipJEKlasaH/55Zfukn+c2at99tlnu0ulk60M6n/961+28yN2lwqbqD5L0Cz7+vXr26tWrXKXsoszgbCvvPJKd6l0SjtHHCFp33DDDfYJJ5xgDxkyxHYmULLeEZG2I0TtuXPn2n/5y1/sSy65RNbvvffecnx5/LTTTpN1X3zxhV2pUiW574hF++GHH5b3t3btWlnH7+C7776T+86Ewd64caPcX7lypf3ss8/Kb2T//feXbR577DG7T58+8jgcf/zxko09c+ZM+9Zbb5V1W7dutffZZx/JiO7YsaM9Y8YMWV+7dm17xYoVct+LZtnnH444ijTLnnM2zG/vxx9/tH/3u9+5S2VTKFn24AhRu3Hjxu5SYRE0y/7++++3ncmtu+QftZAqieWPf/yjuBGV4oT4zqiKXmcz/o7qB7i4sHQaCyNue0INcHnRXQsrJmDZotnDpk2bSuKAvZYo3P/URT3rrLPErZ8KvwfTuQxrDY0RSK7CZZ8u5s/se/ny5SVxcLhUsYA5QlgeN5Y29oHLVcl/snn+poPzIurXUJKHXq2VxLL//vuHGhR5jrn4KoULoinKiyLxlOXFxHkSQ4r4JO4VaPU6bdo0yaAHOrxAy5YtZR2JKePHj5d1PN+cr8QI41Zv0qSJuNKBY2DEpndbHmfSRpKbOee924LZnjAMb3wz3c9w54PZn9lWyX8Iz4jyt2HO66CY81ApbAhBCxMup4JUSSyF1g0jHfyoiQU05YGIH3z11VdDZbAasK7RPnDdunXummQSlXUUuGgasRgWrI7Ed2L9pEzO0KFDpbUjyQ5k8CNQEYLEezK5AroeYU2lzBPbEZ9GzCjxnHyfJEYhVBGMJsaVJIobbrjBWrZsmZRjmTdvnqzHAksyCIlUvB5dzSpWrChxpHTwYn+fffaZWGTbtWsnFte7777bGjlypNy2bdsmFlb2S7LG+vXrRQwr+Q/nbpTCL+oKF0p+Q0w8ojQoKkiVxPKb3/wmUitAHOBipR80bSdpw1e5cmVJOkFkIExLw1u+xwt9rHlumDpxhUTUbsMPP/zQvRcOhCaCcvTo0eJGR0CvXLlSslkpA4XoQxQiCHGvUw+UxDcSJB5++GERiSRIUM0AoYl4RVRiHeV8MVUOHnvsMWvs2LGSuPTll19Ku1Pgcaye1BrFbU+hf16Huom03WV/CGUSrRCsCFkyp8maJ8wAkfzaa69Zd9xxh1hL2YffCghKbuG8C2PB8osK0uKGawsJXUFRQaokFqyISRgUjXUMN+5hhx0mljEsZGRfm+LTXFy8/Z+xcuHyNXgfR/iY/v64nVMvTCar2sBMl+28GevEOuZ7vGDU3395rNR+wdJpYkHJep8wYYJ8r++88461YsWK3cqqIML5bhGQBkS5iQVNxWzntSaXVj8Q4axx2YUPk5sofxtY1sOMD+qyTwZcH1SQKooH3AZJ5YorrhArBxYuxCfWtCFDhkjNy9TyPamPAwM/1rVmzZpJqSZcvghTSpPgAiYphnUff/yxlB+i7BDPh3TliPKRqL9/6uzFCaWdnn76aYn75KLNd8UEpRAgZIDkJ72FuxF+hDU6W3DeZJqkZANvrdogqCBNBpyv1D0OigpSJbHgbkwqWM1I2sHqSWFzXLT16tWzFi9eLI9RiBn3a40aNXZ73EA/e8QqxdnvvfdesYISHkAhdZJmELRLly6Vv7h3W7RoIYWeFy1aJK9N0WtiFvMVLL1RuSW5cHKM4gYLJfVHL7nkkl2soPnObbfdJnVh9RbuRngGDQuyhfG6RAWTpnRVHpTigAlJmBh+FaRKYsFtFJUgyTVYR3G7nXTSSWI5I3YQcZrOjZzpcSwvgGjloofIROTQdxnhw7bED/KXeEIsppnKEeUjHKMwbiO/mOOnlA3ihE5Segt3y3aCXhjrVRC83b2CQDhIUsfsYoLfe5jWoSpIlcSC6zqM+yff3Eap74Vl6k1iNaHzDtZPrJeVKlUq2ZbPYMRnuse9IDKpb0mGNDe25YLFtq+//rpYQWfOnGn17NkzYzmifIQLeZhB0Q8cm6j2rShRE3UccJThAEr+w/kVakLi/lWUxHHooYfm1cBIAlLHjh2lPI5fSCiiYDqQzXz//fdLVjTueOMup0A6iU5z584VqyBudm/5nnSPk63PvogFxSLRvn17yZTmMTKlcfMTH0riDH39sa7itscim64cURDI4u7SpUuosiBB4L1l27JkYLDNRowqwp4EtbIglnf69Ony3cSVTMZ5hhVeSR5RWyEZd8MIEiUZcH6FOcdUkCqJhY4yYQZFnpPOklheEEdYbRGL9APHBV4WDOxYQnk/iJFu3bpJHUpK7xgrB8sISx6jMDr9xb3le9I9TnITPc0p33PrrbfKZ8baSvY2r4P4mThxorwO9THPPPNMa9CgQfJ6qeWI/EKZJKy1lKziWEQ9WYgyxpLvIxuF8QmTSM2UTwd1Y7FcH3nkkb7Om7B4S4VddtllYmVWkoepuBEVTNaiGEOVwgBjQ5jvXwWpkliIY8q3QfHss8+WHyvle8jS7t27txQYLy9lle9J9zhu+dTmAdRuReiaG6KR55oyUQZvOaKy2Lx5s1hoK1SoIMX9mTljXY0a3p8R7VFA3G154fgSSmEwItcrGLBSbty4Ue63bdtWapRibf/hhx9knYHnEjPLOY8VlePsrTXL46m/ByzhBorb9+/f312yJMHNe/x4vteqzX1eh0mWKT+mFAZRW76TXOFEKRvGoXT5DGWhglRJLGHFSFALKZnrlLXxc6MMk4ELOVZKXOW33HJL3onn8kKVA9z9xJ2OGzduF9Hy17/+Ne3xKe32ySefuM/2R9QuQwRceSEcg6QzoMMSsbwUyqeV6JgxY+QcocwWhe8phs+FngQ1LN6mYxODf/fu3aVoffPmzcWSzTnFvllPxQUS1WhLSkUFwMp69dVXS1IaBfOBLO41a9bI/ql5yj5MTdrBgwdLfDGWfcqF8Xws7bQf7du3r1jKTR9+Jf/BWxFlyAwTHZ2kFC98/2HGAxWkSmIJGycVVJCSbU1Wup/bXnvt5T5rJ7hFsTgmDSyUhE2kc/tyHNIdn9JuQZOIEGphzwE/ZKM1LaW3jDCglBP3SR6jpSdikWNI/3rK6CAGiTmdMmWK1I+9+eabZYJDhySELMeUOGFCLtgeUcu2tIolZpj7CEmsY1itqSNLiS9KeXHxYHvibukGRdwx3x0gZjmOdevWlXAN4n85X6m2QPgF7UQRr4R7KIUB3pEoJ2xMRtVKqgRFBamSWKKOkwJEwYwZMyTr3c+NWEzDgQceKFYuLG3XXHNN5Ba9uOGix2fGsklClhE4UK1atd2OTVk3hI+fBCAD1sUoOfzww9174fHG0XKfMBNA7KZLXiLJzOsKw91PPC/eAES7AfFuwjSIUzXhFUwOEOpYNOlDj5jltdK518x7o+e+maDxHbK/L774Qh43pa8yvV8lP+Hc9Z572YaJjd+QHiV5MB6EiT9XQaokFvp2Rw0XZCMi/EAXpIMOOkjEFW4zhGiUyTfpwDqGFW316tXumt2hnNOAAQPcpfLB8cGtizAdNmyYXKxw/waF/QSp/UmMZ1RuQyYPqXG1YUDoea3x5r53PdZJY0UlfhQRaQQkopuuWun2Y5bT3cfVjhX14osvLvEI8NcrTM22VFSgI5gB6ygWUeBx89fcV/IfJhVRfl/sX8uiFS9c08JMeFSQKokF4RVlnFRQEA/E8CFEe/XqFbsQNSAIqS9aWicrWgsuWLDAXcoOCEpiQSlhhAs5agFDEk6YwHq/ZKMwPhMU3OhYORcuXCjudVzoxHNiOedcId6WxynJdcIJJ0hcLrGhkydPljhOkuMQjCtXrpRmEGzLfphUvP/++1Lqi4oI3MeyyX5wtxMWMGrUKDkPiRul8xTufNaxLfvieVR5wNrFJAqXPTcS8bCwLlu2TN4npczCTDKU3EDyYpREVW5NKQyYjITK4XAuCoqSSM4880zbEV3ukn8csWaffvrp7lI8OMLJdn7E7lLpOCLb/v777+0ff/zR/uc//ynrHLFbct/w7bffyn698FxHqNlXXHGF7Yghd+3ubN261a5UqZK7tANHhLj3SifIZ4mSTp062W+++aa7lF3+85//2K1bt3aXSqdfv3727bff7i5lB75bvv/yYJ7/888/y1/45Zdf3Hu78+WXX8r5E5RrrrnGdsSvu6SE4frrr7dHjBjhLpWfbt262c7kw13KPoMGDZJxNCicX7/61a/cpbJxJkl279693aX8ZtasWXbjxo3dpcJiwYIFdr169dylshk7dqztTKTdJf+ohVRJLMRoRln2Jxdg7aJ2KL3ByczHYoYFjRhLitZjAXN+17tlRcNrr70m29GL/uWXX5Z1FMendSjgxjU1Mb3xrJQcIgb0sccek9culGQFYpiijMvN5XHgs5XXwm6en6lUWCrEqCbt91SsEO/LOBEVeKaiTChU8hvOrTBj7x6oUve+oiQKXI2UVSKeKQi4Ijt37iyxenHBAI5A8BPz2KNHD4kbvOKKK0RwUtaHkj+dOnWynFms7IOi+AhWXKvU/6QgPolEJKjgriPDmmxuulnRPQrXLEXRSdJC4BJ/i1Cl/E+bNm0kGxsXNUJ4+PDhIkwzEeSzRAmfhWx0MsGzDRdbMuRxs5cFTQg4B5kMFCM0V6A9bXkFdC5g0kEstTcZMRcQ6kLML+Ea2aBJkyZSZiwbcdDp4LfXsGFDqWUbBH5XjE9+Q20Y3wkZIfykPBCqko0ybqVBRYxnnnnGGjFihLsmGkgooslJNqHr3wMPPCDXBj/wfVDuz0/TDy8qSJXEgqjkxx900M13QUoiFLUjEZXcR5wivMx9MrH5zCQuAd19qASAqESgMnOltA9C1I8grVKlilhU/caF5YsgRZA3bdpULMfZhgsncZjvvfeeuyYzKkivleNl6q0WEsTIEvM8c+ZMd01uyLYgZRI7b948ES9RQNtZauISKx6EXAnSyy+/XOKmo4ytpbQace0HHHCAuyYaSCaiTnE2qoAYggpSkldJfOS6FAgEqaIkka5du9rbt293l/zjCFL7tNNOc5fiIUjcZa9evWznAllyf/r06bvcJ36nVq1asg5OPfVUiRd0RGJJXFerVq3sZ5991t60aZM8Dq+++qp9ySWXyH1iSE855RS57whfe/To0XJ/48aN9oYNG+R+JvIlhtQRgvbbb7/tLmUXR3TbBx54oLtUOlHEkBYShRxD+thjj9mOsHKXcke2Y0grVqwoMcFR0bJlS3vp0qXukn8cQWr/v//3/9ylsslWDOnJJ59sr1692l0qbKL4LEFjSPv3729PmDDBXfKPBgQpiSXXFroowHKJJRPLDW54XPNkWJNVbe5j/UzNisZiSc1TWk9iOcQaQIcprC5YJeja89xzz0m2tCM4JcubfbIdbnr2Qe1K9okrphCI+vs3pY8KgbJKfWGRorPTxIkT3TVKkuF3H2U8MF4SR1+4S0qxwfUmjLVZBamSWLx9upMCpXlwryMMKc1EghJuK1zv5j4JL7jjiCvFXWriPbt16yYlf3AhI0ZJYsINT2gC93Gzvf3221JGCBeWiT89/vjjJbGJMkLsv1AwbS+jwlvoP98pq9QXbj4EPN+/knyohRylIGX/iBKlOAmbdKmCVEksWIWKeZaeLiua2FIGCm9cLZnVxDgyo800iCBYEDWFBBUH6EoUBcThRhV/lw6s2D/88IN8HtOBioSb1G5UxKhhnfLCc9mutPfL50nXvhaLvJI8SFCMcmxkHImywkVcMFmfOnWq3IjDZ1Jeng6AxJGOGTNGWvwmGb7/MLVoVZAqiQVrEBdjpThBYEdlBeJiXlqJpGyipb6UbBN1W0+aYCRBkJ5xxhnW0KFDpUwWiWBMCM855xzrwQcfdLdID2FV6eC4b926VcKikkzY714FqZJYDj744FCChB9TMVtWkwIW3aiyZjlH/GYClxfq6VK6CvFJyS2y1b/++muJCeb+q6++as2ePVsmX3Xr1pV43y5duohF9aqrrhKhSgme0047TfZHu1BjRaV0VbpJ26233iqlYwgFIfSBmGUlOUR97vL7CCNK8nHsJd6W8Ciy4/l9UXGBTntr1qxxt9g1PIyM9GnTprlLOzCPM4k1nghCZBC6XtKFGfFcryeE7y7fw9G47ob5/lWQKomFASTMjyIXIB4QCZR3ifJG7VKSntI9lq0bFrkw8UPZBitNlPCdxQUXMnNMCa8wFi5itbDaUF/WXMiIbWWbd955R1qPGtdZkFanlLNq3LixWE9xW5ZWd1YpPKK2eCO2kuqdqlixokzuKK1E218SQp966ikpxYdwRJC++eabUnc09XHgmsTjJJhSko/tOFaUGqSVMKX7eB6/Z8onkWBKjWl4+umnJfmQ8nx9+/aVdfkIojnM96+CVEks2eg1HhcIC9yoxHYyI4/qtmXLFnEZpXssWzcmAiRN5Zoo3YZcLDiWccHrGcGZ7v6xxx4rFRYMWGGwqiKaqSVrYNKDsKUQOCBmjbXUu19qGFJ3EBC1uPCV5ICFPUoQpIViDAgD4xyxpOQpUA+aGs8ffPCBCDFc+1QkYTxPfZwYUjjuuOMkLnXUqFEiLon9pokA25G4imBFlBJryvp+/frJ86irjeeHsIFHHnlkNwtrvsCEJ5QV3hmAFCWR0K95e4g6pM4FvKQ2Z9IYMGCAfdttt7lLyYZaeFHWIT300EPdpdIpbx3Sbdu22RdccIHUmf3kk0/smjVr2j179rT//ve/l9ynt32DBg2k3if1KqkxC9SkpS4h33vlypXtG2+8UXrXU2P2qquusocOHWo7YtZ+//33pZ4jr+MIbfvdd9+1HVEqz2X/5UHrkJafbNch5fv/6quv3KXsw9hLXeMwOELWvVc2cdQh5TexcOFCd2kHFSpUsCdPnmz/9NNP8r0888wz8jviesM506dPH9ku3eO855EjR8rjn3/+uX3kkUfK/UmTJtnTpk2zr7jiCtsRorKO5zriV7Z3JpF2tWrVZH1plPZZwhK0Dumtt95qO4LZXfKPWkiVxGIsP0FhZu/8NtwlpVCJ+juMKywhjlJfWGzodsPrYIEp1FJfij8YG6P8feCF8cY9FjKprmdq9RIjSScqfkNYS4nLNtcN/hrrYLrHvdBSt2rVqpKMyK1FixbWnnvuKdvhmaDFKwlSJCJiRcXKSidBYPtQVsgY8FYDCYIKUiWxGPeIUpzgzoryoosgzDeKvdSX4g+aOvD9RgXnWpiyP1GCoAsKsdnEUz/66KMiCocMGSKCkPAYfju0D2Yih+ud3xFudGJMiSOdP39+2seZ7BE3ijue3vY8xvfBxJHmFSQsPfHEE1JdgwklyVMkHxIbPnr0aOuiiy4SNz6NUcJW+mBCEmUMPCFDe+21l7vkHxWkSmIxcXJKcULZr7BW8rLA2qFiTSlUvJOTKKDmbVxl0fyC4KtXr17GbmXpIFaTWHGEJOKwf//+1r333lty/Ej8Q5ziacDr0KNHD4kfpWtegwYN0j6OtZSybeybklJYUKloQRIignT69OlihT3zzDNF1FaqVEmEKAIYi+lnn30mXfVatWol7yEITNAp5ValSpVIJwzE74epcKKCVEksH330UWSCRMl/mJBE2T406ix+RYkK3MJRQkJplBbYMNSsWVPKlyEYEXbr1q1zHykfxsPgFXheMZ7pcYSoFwQc3g3vje1SO8Ix7oSZUJDpf8opp0hYAFbcKAUp3z2T9qBI9LB7X1ESBTNLYuLSdaApDWJ2KMnhzU5OChRWZ+AjszPp8B1SL/DUU09112QP4sratWtnTZ482V2TGUq2YGXBMlKMENuKy7F3797umsLh8ccfF9cqVqtcQjk1BEyfPn3cNeWD+rTEN0ZlKaWJAzU7Te3bICDE/JYMIr4ZwwNucT8Qr4kbHhB7jBEDBw60LrnkEqkdSq3fQgfB7f0siPBrrrlGLLQG6hlff/317lLZEIJA1Q0su36gcQDtY+vXr++u8YcKUiWx4DLB1RJ00CXJg+QQSm8kjWISpIjR9u3bi1Ug2zBs4jKjdEtZICaIOyN2LB0E/1Nb8PLLL89ZGAAxa7jxDjnkEHdN9uDCj/jJFKuazyRVkHbs2FFiF6MSpDRWwD1OrGNQsK6RrOPHwrZgwQJxh/u1+JIolFpUHkshIQa4wZMkSGkMw3UMMZkKIQLEm/uFeNNatWr5TnAcN26cvL4KUkVxadOmjcTeqCDdSTEJUuK9yISlHme2wYKDBYhC1eWF7wSLElbEdBePODjvvPOkVSgWJGUnSRWkLVu2lCSdqATpgAEDdukOFoQgghSICfUbmsUE1ev5ojoFheuJ1aRXfdIspBwbxhe8FF6px/mE6z4IFSpU8B2mRJwtSZ+cA0HQGFIlsURZGF3Jf6L+7smCLS9Ya4y7kRivXIWJILBxlSrFwRdffBFpBQrTeS4OmHASnuXnRrF5QIgimslUZyLmjfmMEsohYT0ksSgTlFrjvWUDjg3eDzL1vQKU95Hu+JR2CxIzT+x+mO9fRyAlsSBI1AFQvCCwohSl27Ztc++FBxeYtxwN8Wy5gItHviWhKNFBprbfOM0wUOEiyoTCMKxcuVLeE+EEmzZtsgYNGiSu+jghPIB+9e+//767ZneoNUwoQjY54YQTxGpK3VOEKRbTKGFsDFPlRgWpkljCFmZWIZsMaF8X5feYmv0aFIQoxe694DqkZEzcqIW0uEhXrzabUAM4rIU0qvGXupgff/yxuLDDhirwO8H66y38zjiTeq1B+Kar88m6spJs08V2fvnll+698oHbHWFKQ43UWNps8tvf/jZUFr+OQEpi4ccftdtWyV/oNR2lFYie/eUBMZruopAtd10QVJAWFwceeGCkYyOTNURJPkGpozDF2g2E6NABjXhvRC1WR7LOb7zxRonXJAwCSKSdM2eOdeedd5ZksmMxpAYpiVPEqsLrr78uzSmATHg6soH3e6FbGiEFuPh5bcRvNqAzW5TWYfYdprSYjkBKYtm8eXOkgkTJb7gIROU25KJhLiBhMG0AZ82aJfUQEQi4FLFccNFcv369u2U8qMu+uAhaCi8oiJGkTXD4jRKTifikbNIFF1xgff311yI8uf/qq6+KKJ0yZYrVrFkzSRylIxNik/skWF566aUlmedUIDCW2nPPPVdqt6ZCeAEZ8SQI4epnX4UA1tEwcbkqSJXEQu1HFaTFC9aEqL5/XIrlSYQgqYILV6NGjaxjjjlGBC4XHYp3UwKKdXGiFtLiIsqi6JDUhFJ+86Z8GdZNYwXm94wbf8WKFbv0lycZiAknfeeNdTad8MwEbUvp9oSQpY4oVtJCIOxYoiOQklgok6IX2eKF7z+q2pdJu9iqhXQnpSVjJKUdcdj4Tr8kUYwCE1ET35ruPhNJhKMRpcSWnnXWWWJdxVpqMMef8QnLJ9sbd7x3v4cffrgUpAdqqOLCLwS47oY5B/RqrSQWBEmYHwXPMQOCUrjgDovywohFJCmohXQnr732mvQRp684IRWUzKH6AY0QqG2bBAhlyVfRmK/jL4lFdPHDbU65KJIP6VNPxr65T2wmtWK7d+8uXdyo70tDDBpDjBkzRuJNn3nmGRGthBTRva1169bWQw89JL9BROtLL70k+yQTn3jVkSNHSm1RYs6POuoo993kNwjsUN4p54tXlETStm1be/v27e6Sf1avXm2ffPLJ7lKyGDBggO0Mcu5Ssrn55pvlu4yCf//733b16tXdpfJz0EEH2Zs3b3aX4qdChQq2cwF0l5QqVaqgiHa5/eY3v8nZd3T99dfbI0aMcJfKz6WXXhpqbPRL37597ZUrV7pLwfj1r39tO4LGXYoHxvtsjhXffvut/eOPP7pLO3AmsPbXX39t/+Mf/5Dxw+AIXfmb6fvgWGzZssVdKptsf5Yw3HPPPfacOXPcJf/olFhJLFoYv7iJ+rvHSlKoUJaH2DZDqss+bMm0pOCIP/feTjp16iSu1yRAxnhU8dXA+eXoC3ep+CCmNDVciHhTss+JJfV6I0yZp0ylqPhd5qqlcFgIQ0hX9qosVJAqiQW3QZhBMV9dRkowuOBG+T0WssueyVq3bt2s6tWri2sa9yEuxa5du0pylbdYfzFSrVo1OTaGpLXb/f777yP9bZBtHvb3oeNv4WNqtQZFBamSWLJVs00pTBgUo7ywUY6lkCEe8oUXXpCONdRDJUaNtobt2rUrV0mrpEDcn4F+50mxjsJBBx0UaRIbAj5sTLIK0sIHay9W4qCoIFUSC24DddkXL1j5orqwcV6VtzB+rsECeM4557hLO+BCQlKGYkliE2W4cL0mJZnJEPWEg/1HXVoqm+BNIwRnw4YNkd0IkaF1Z7rHsnnjs+QaSluF+f73cAZsnYooieSMM86wFi9eHLgI9DvvvCNFjFevXu2uSQ50GEma+zETDRo0ECGBsMg2DJtXXnmldGXJBgcffLD1xhtvxG6Fe/rpp606deq4SzsKcXOOKDugruTs2bOlEHouueGGG6RqSLYmC507d5Y42Uxxi+WFbmOXXXaZFH8PiimFxDgVB8RL4+3gdaMU0UyQ6R6HdTpKyOpnXIrqu/XD/fffL5+TcyAIKkiVxEJXDQoSp+sNXBoqSJNBy5Ytreuuuy7URbEsiE/t0KGDNXHiRHdN+ciVIAWOD6/NBezTTz8N1fIvySBYct0GM9uClFjhYcOGRSZaKJNFR6Iwvz3imwkhybfWo+WFiQ0tQGfOnOmuSS4PPvigCFLTlcovKkiVxILlZ/r06YEHXRWkyaBXr14iGqnhl20YNtu0aSPdlrJBLgUp/bixJhMzSZ3EQoRaodSJLGROPPFE6QGfjkKzkFI/s27dutZpp53mrvEP7t6vvvpqtyz1QqeYBCnF/BnL1EKqKC4tWrSQH4YK0p0UkyDt16+fWEmxlGcbLKQMtvPnz3fXlI/SBClFtKPurIPFbPTo0ZG7SStXrpz1AvwffPCB/F6jEldxQEYyoUVPPfWUu2ZXsi1Iw46NfqFyA+0uVZDupJgEKS57xjTOgSCoIFUSS1grgArSZMBnbNasWWSCtGrVqtKdJRtkEqRz5syROFjqFxY6iIzevXtLuals8vrrr4ugXrlypbum8ChrzMm2IA3rPfIL77dp06YSxx8UFaSFDxU7DjvsMKtRo0buGp8gSBUliXTp0iVUNxLn4mCfeOKJ7lKyKKZOTY74jrRTkyMe3aXyk6lT08iRI21HhLhLhU1Un2XVqlW2I3zcpcJkzZo19kknneQu7U62OzXxWqZDUBR07tzZdiZr7lIwHEFq//DDD+5Scpg1a5bduHFjdynZMPZOnDjRXfKPln1SEkuUnUiU/Ac3aJTnQBKslkpxQsJQlCXxsHBqHejihRAjR1+6S/5RQaokFrqRKMVL1O0vDz/8cPeekm+899571tSpU8VFumXLFndtenD506VqwoQJ7prkQ4hItmN5vVDZJOp4ZCV/4fv/3//9X3fJPypIlcSydetW955SjJB1HVWRaKxLQevbZpNPPvnEmjZtmoguYgFJhvnss8/cR8NB8lT37t3dpcKGWoyTJ0+WFpbEXmaCnu4cP+JaKYwedfJYvhC0FF5Q+G0UUmF8JbswGQkz4VFBqiSWsBcYbV2XDL755hvrl19+cZeyTy6TLrDOvvzyy9bzzz9vXXTRRdb+++9vtW3b1urUqVOpYQrvv/9+RstxxYoVxaKYFEjYMWEVjAM//vijfHbvOUHhe1pociMznL+p5aMoaE74hxkTmORQJ9NgWtSyXSqcg6nkQ3mqqK2X5RGjOv4WPnz/YVrTqiBVEgsXpCjjpJT8hoz1pGXqesHyhxDlL+WUqCdKb3rK+RjoeGMu7oiqLl267GI19j5O72lzvFjvBZFLlxkvCDHEnVfgfv3113lnZaTY/3nnnSd1Vvv27St1aQnn+eijj+SYkdn+xBNPWBs3brTuuOMOEeUXXnihHAMsxnTkIgN+0qRJ0tmKv1RwYF+4+8kmpkFCx44drcaNG8trYsHm8SeffFLaj3LMU/efyxjLX//615GOjQheHXuLl7ATChWkSmJBkEQZJ6XkN3vttVekF0UsbvkEiSqU2pk1a5YISMqeIVDPOussEWVvv/22WEgp5k84S+rjwIVk6NChIpguueQS2Q+iauTIkdaQIUOsm266SbYz4nfw4MHWwoULRVxxn9AB+uOvX79etssHDjnkECk6T/kvytEcccQRUmaJv/TzP+WUU6yGDRtK21RaSB566KEiRglhoLQX59HcuXOtdu3aSRk5JgF8RtoznnDCCeL+piMNIRQcE6AG7hVXXCF1cFu1aiXnSur+ly1bJtvmAr6vKK2QUe5bKQzCnAN6tVYSC3FMOksvXqJsPchgm84dm2uwlmLJxH1M28batWtb++67r/Xmm29aVapUERc2Fj+OTerjwOei1uVrr70mFr1FixaJexpRVa9ePWvx4sWy3bx58yT+Ejc3rn5ELtZSrKxHH3103rn+cR9S3xI4BukmEyRCYeGkmDdiFFHOhNbEWyIisf7yOEKTmF3aXJp9s61xVWN1NS1Y6eiFqE23/1zhDTmIgqgrXCj5DR4BFaSK4oGLbpgfBSI2zPOU/AK3ZBgL+ahRo6y33nrLXcrMxx9/7N7LHxA9WALJcMX9TjFuBFVqclemxxFXJiEBwUSG+gUXXCDWQISu2Y4WoyQNYV3ld/buu+/KdogtLIX50HgBQeT9HZv7/DX32caEGBCXa8IdPvzwQxHk3m05ZnSFooEBvPjiiyXHw7tvOOqoo0oKoGMt3rx5c9r95wos5Oa9RgFhHGH3r+Nv4UNITJgqJypIlcSi1tHiJuwsfdWq161LL7usRHhkImorU1mkWqAQhTNmzBCxiFjiRotILHXmOPCb4LhketwLQurMM88U6yjbVapUqWQ7EgZ5fpMmTSQ2EwFGu0DeE5bSl156SbYLA69b3pJtTCi44ULHPc93iYucuFH2z3vHws3jrEdo0n+d0ARiTHHt41qnExcdoEwFA9qrkkSGdZljQAjEpk2brOeee06szFhR2Sf7uu+++8S1Txb/QQcdtNv+OWa5golGeSyYfNfPPvusu7Q7WM/DCBIlGfDbSpfkVxYqSJXEEmWGtZL/YPkKe9G9+ZZBVvsOHay//e1v7prdIQYxV2BhI8Me4UcNzXvuuUcSZhBQxx13nLy3pUuXiksd4UzSDhcIrKe0dcSFnO5xROfw4cPF+okIrVChgnXqqadKa07iKBEaPO+hhx6yxo8fL2ExJO10cI4VJZaOOeYYce2HaRlJIhBxmjzfuLvDQlwowpMEJOJHCUHg+HBccJfzuUl6fPjhh63ly5fLMaNUFFZLhBbHE0sxf6lmQN1OQIAjThGgCHX2zXFr0KCBHDsSvbAUc5z5jubPn28NGDBAnpu6/1xCaEd54uvXrVtn9ejZSz5fOvjtqZWzeCGEJUxCqQpSJbGQ8asULwiF8ljJn3vxVatN27YZ3fckt+SKI488UsQoYolM8F69ekkcJwISSJ7BMojwwkJHFjjxncR2jh071jrttNPSPk6yEuKyWbNmVvv27WVfd955p/TUN7U6yVjHhY84Q5QRF0ksJVbHV199VTLRTbymH7DW9ezZU2JPEZAkGPkBwYcFN5sQslDW98pn9dMDnpCR/fbbz13agZ/9xwEW2/IIUmjVuq31wLiH5JxJhf0nucKFUjreih1BUEGqJBasOWFm6RrDlAyw2IVxG3l5YelrzoW3tWSoe+EcYdDNZ0wsqLkB7xtRBOkeB5KcUi8mZtkk7bAPRFnqdkEsb1hmyUZHXN97770l8ZiIaVx+Zd2IfcXtnU4QKaXDhCEbY9yj02dZ9419QCoxeDFJXmHQ8bfwYVwIU4tWBamSWOinXJ44KaWwQTRxcUP4tG59pdW8RQtfN9yRe+21s+3di8tWWi1atrTWrFnjrtmRvBJlFn/SYbJAKABudNzcXsjyx7Xu54Y1lthZJRjZPHenPT7HGn3vfVLyy4B1WEVl8cJkhLE3KCpIlcQSdb/mQgFrUiZynZgTJdSh5cJLe80vtmy1al5c19ft+htvdv7Wdveyg6XLX7eaNmsmbm5gsDUWPSU4BxxwgAj8YcOGiVXVC1UOCLfxc+P8pQC9EgzEolcwkIzVqVNnq3GTJr5uL774krXPvvu6z7as6TOesO6+e7TUpIWwFS6UZMD5FWZComeMkli46IWZpfGcJM3uST6hyPldd90lWcFYlIgLJBmFWMCkQqyf4Ygjj7QaNmri65YqRg3LXnnDatS4iZRWglTLnhIMEpdIsCLznfPRCFOvJVqJBqoYeMc46su+++57Vr0GjXzdrruhnzNBa+k+ewePzZrnTCbusp555hlJKA3rnUra+FuM8N2rIFUUD1zwwgjSpHHVVVdJssm1114rZYFIYrnuuuukTA2tJJMKcUzZttIsX/E36e6DgMqHnuTZhOSt0s4HPi9dnMjkzyZMHK655hrJsif7nKz3fBYk/HZK8zoUAune//7OhKDBpQ193WpfUs991q48Pnu+NWz4SKlwoGNv8ULJrzAeJBWkSmJBjOhMe8cFH0tUKiSUkNiSVKK4IF584bmSRIOA2rBhg7s2GVD6iAlLJkhiWrt2rWTFRwHhFWTbM3nK5xqWl112Wd4ntJUF4j+q+PpZTyyQWqy0WS12KBuXLiyKsliUDksqhICEaa2sglRRioAePXpIy0QD5Wgo45NkvDP0TzdtshY/87Sv2/KXl7rP2pVaNapZ9903xqpcubIsp2aY5xpTUcBr/eLCkEo66xitHon7K63+J4/TrcgLrt9s9/QnOzfqY0v8qenQBObY0Y3KC67n1EoNFMU3lvdMz4N8tqBHWSe0eZNLpfwYnplih98Tsey06H3wwQelWgdl0qgkQcm2pMJ4op2aFMVD2G4vSYxhwqKDy96AxdQbY5lEGBD5Hps2beqIqf9nPTJ5vK/bLTf3tZ5/bom7lx3Urnm+de/oe3ape3nYYYe593IPscD0qqeDDhY8MtUpmE9Nz1tuuUW2wVpDpyAsvI0aNSoRURSHp9D9hAkTrG3btsn6Tp06SWchBC3HjxAF8FqducBSn5R9UVi/EPj555+twYMHS0Y4XZRwLRNjXbVqVenCVKtWLTlusGTJEqnTymdk23HjxskxJLuf45LpeRS/p3oANV9pv8pr5ht8BlP+y7Bt21br6af+6uu2eNGO5KVUWjZraPXq2UNqyoYp+wNJGn/xOvB7JK520aJF0hGMdr1MCvGyJBUaZtB8IygqSJXEUuhxXtmGARBhinWUYupJBwsVVlIKkc+bO9dasGCBr1uF4ypYX3/9lbsXy6pTq7p19113St92AxdNBt18oU6dOvJZ6ag0ZcoUEYhXX3213Dd1Oil437t3bylmT1914jVx3SK4sKATP8r5wYWEz4pLF4sooitVIHBh5QLL4whhBG0hwPHA6snnRDQhGkn4w2JIuACJf6Z8Ee09eezKK6+UhgA0C6BUlSl2n+l5t956q1jAaD2KcKU1ab6Bt8Q7uahRo4Z1jHM8Zjz2qK/bHUNvtWbOmO4+ewdXNL/c6n71VVbdunXltxFWkCYNJoTeYw0YBwo97KM0MHaECQdTQaokFi4i+VSHlIs6IjlXNy6eiBRuWG3SbRPXLQ6oQ1te61Td2hdao0aOEAtZKvl0QcGdTgwmFz5EIhcD7vMecZ8hjKiuYH4PtLmk3ioJSt6alH6t5sSS0jbz0ksvtQYOHLhLDcp8hmNAa0/e97Rp06ybb75ZLIXmcyPUTAgCyWtYtjh2VOwwFh9jWcz0PKow4JblNWhTipU03+A7904yiA+eNGmiTNz83Ko7x/DLbdvcZ1tW6xaNrW5du0jbVzDnomJZJ5xwgnX55Ze7SzvGjSRbR4HJSJiEUhWkihITuFWxmngLe8d9w6WL5SfdY3HdOAalJc9kCzr5lCdpq36dGtbwYXeIhTCVfHMp8n7Me0p3HzGF1eqNN96Q9YjUs88+W+LbSEDxxlMiWonhNBMHtjWPm/3RIQlBRywm0J+9EOB98xvgM2Ippf0qpB4vQJASlkE1ChKtjBD1bpPueVifH3jgAblPe1Nc+PlGNpMZr2zZxOrUuaP08zeoIN2VQYMGlRwP2vx64/mVnaggVRILF4YwszQGDnNxySZYS26//faSot65uCEyyPpM91hcNyxqK1eudI9KdGD1SY2T88uIYUOt24cOkb7t6eAcyafC+GTsbt68WaxzCEw6IWENpL8897GGEivKhfHxxx8X7wFxoueff764nrFsEVtJ3C0ufizC8+bNs/r37y/u+RUrVki9UGqEIuJIWsECeOyxx8q2+dCf3Q+ELXA8jjnmGPnMZ5xxhhRz37Rpk3xOPhuf8+OPP5ZJ03333Scu+CuuuELOWY7jZ599Zj3//PMZn0fsLbG6f/7zn2XyhwjON7IV19qmVTOrfft21mXOueAFwR92DI1q/M0lWEkR7FhHie8uBsJMSPZwvvhkffOK4tKmTRtJOECYBIFEB2LyuNBkE2LNCHIvLX4TkYMg+PTTT0VQV6xYUTI1DznkEHeL3IKgpBZleUq60Inn888/j7wszIABAyThBvd0EG67bbB14UUXWlXTuOkNXHARZCY+s7zQVQzrJRZLL9k+VpxfZIanWmi2bt0qPexJaDK/F5ICcb0hUrmQprvAcD7Qt9zr9s9EVN/766+/LrGzQSY5lK4iFrS0CSuikkoUZhKHkEec+gGLMiEjfoU6HcCaN29urV692l2zKyQh0jggW2KmZcuWYikOOjYaiIFctGiJczwGOr+xne5oA789EupOO+00d41/sOQj7sO+t0wQV53LZhZ8JiztfM+55OKLL458AnnvvfeKJ4xzIAgqSJXEggWIi0qhCFJciE2aNJHkEsqEIEq5ALGM+zAf4EJL3OG5557rrglOXIIU8YBoDCpI/YAgpfwPWdfZIC5BmkvySZCWBQIUy2/btm2tk08+WQQsE8SofodxC9KLLrpIsr3Duo6xHB9zzLFWrVoXu2t2hfdLdQYs0EGJQpDOnDnTGj58uEzwcwnjZ1ivTTZg4skEkkTGKKEqB78XYqkDgSBVlCTiXKRs58LiLvnHEaT2Mccc4y5ljx49etjOzNFd2p3evXvbN910k7u0g2+++cZetGiRu2Tb3377rf2vf/3LXbJtZ4Czv//+e/vHH3+0//nPf8q6n376qeQ+8BzwHgv2Wxbs1xFeJc83pC4HPcbOJMF2LqzuUnQMGDDAdkSeu5RdOO6OeHSXys9BBx1kb9682V3aSVzHKg6i+iyrVq2yHeHjLhUma9assU866SR3aXeuv/562xHy7lL5cYSZ/eWXX7pL2ccR8vbLL7/sLgXDEaT2119/7S5lh/Hjx9sdO3Z0l4qXJUuW2DVq1HCXoqN///72hAkT3CX/aAypkljCFObNJfPnz9+lziWQMU3Peee3KjF+xAQSBzdr1iyxNpHBS8wapUWIU8KFfOONN1rOxU1i5UikKq0+JS7adDUnsTqR0DFx4kTLGchLZrqTJk2SLGWgZFDfvn2tJ598Ut5jPsVUQtTvJ9WaqSiFAgl/YeLr/UJYSL6NB36gbS0lvCgHhpWWhLZ8olDa1hLqE8YSrC57JbHgAqN4d2p3mbKgJSQucxIYsklpLnsGcDKhSXzCFZwKApQkFUQkxctJKiExBUFIzUiSLhCqJKlQNxGRSdIGrnWyqd9//31JwEBMEpJAYgaP43Im2YXHKAJObUouJAx8JKwwQBNbiLuQ18V1SRFwnsdr8vokb0yePFlKm/gphhyXG5rjTRxxuuNZXnDZE9ZBYks2yOSyHzJkiHxf2XLV5hImM1xuCKPJJtQWJXOZSVGhwu+f+EYS0tKRbZc9E0x+99mO0zQwxjEOMRkOCmKZygTZzETnsxK/WVq9XCb8nJ/XX3+9hE+NHTtWvhO/ccNxsHTpUgklCev2pxoGTRsWL17srokGjBoYNAhBC4IKUiWxhI2TYjAk8BshkE3KiiElyYIkLBIOUiGJgIsHohGOPPJIyaxme0QnyTvUtkOcUsDb3EdY8zixacysWUcmtvd+JkFKvBWWUpKqDjroIMniptg8RbQRpAhREgUoMG5ApCKcAXGdbuCMS5ByHDnmfM5sw7BJgfmpU6e6a8pHJkHaunVrKUCPGCl08FhwvEzr1WxB8hAWfr7nXMbnlRcmjpmSF7MtSImN5bcelSBloooYCRNDmgtBSkUJxqPUJgYYAox3CJHKjRhMAxMJlhGuJP4xLhjjAlCbloQ/1hnDCPcZU0vLQifWlEoIWLG5mSYDvA61b81z8WoFMbjEJUgR85zLxPAHAkGqKEkkbJzUhg0bbEdkuUvZo6wYUmcmbp9//vm2MxC5a2zbudjajmi0nR+4XatWLXetbZ966qkS39mrVy975syZso7706dP3+U+sVgnnniirON+hQoVdrv/6KOP2o6AlfvOYGUPGzZM7vO4iRc94IAD5O/WrVvtU045Re47g419++23y/1169bZn332mdwvi7jiIh2RHjqOrSyIISVOLltkiiGNA+eiZjsXNXdJyUeyHUMaNr7eL87kVmJ7w+AIUhn3sklZMaTt27cvGQPTMWXKFPuxxx6znYmPjF3E6DOeN2zYUMZArjXjxo2zBw8eLPeJ+3cm7bYzibAdMWw7E0u7WrVqtiNw5T7jPDCuX3TRRXJ/6NChdoMGDexNmzbZzuREYuAZx9mfI2IlHn7//feX780Rxna/fv3kPV144YVyzfJDXDGk999/vz137lx3yT8aQ6oklqjjpLINpVIowk6sJ1msxH9S7xBLZbt27WSmTV1DXJ7csAy99dZbMqvHfY9lkgx4rJ3mPjPh0upTUkkAF1BqzUmzH6ywxFExE+f53Mj+J5wBqxTvk+c74lesqPkE1kYKvEcBFgrc9kkg15m/SvzwnUdJmBqUuYRxNJN1mnGSsBA8T3T2ckSdVHQgPIpwJmL2b7rpJrHAMoayDZ3LqO6BVZsQJ57PeIp3gPuMoXip8MSZ74IQIMYU3gdd0KjuYJqYUIXB27aW2H7GN/OeTJewfIHrbphzQAWpklhwgxbSwMh7JWaQ5CaKKOOuNS3nEFaIRuKycN87s2IZDBGsDFrE6+DaxQ1H/TdzH7cZbvbjjz9ehC51I0l+wpXCfUIIcP+//fbb4rJnX7ipcB/iWuJ9MLDiKiL+FPcVpUOIL2XApBMN7xcxnW9kqp2ZLehglARUkBYfuJ4LTTRGCaKPOPt0MEH3JmiZtru06zUTXtzmphYv444ZG/xskw5+jyY0gNAFIzjN75QQLNz+QCkyBCzJWIhWbrznXMLxCjNhV0GqJBZ+9IUIgw4CMx1RWX0Z3GgnSOxTkAsVA66ZtecbDP5RXXRt25YEryTAhaOQPAlK+aG6BudwVGSrE1Rc9OjRQyqUYMU0cHzwFNHVi3h4I0qJhSZemcfNMQx7P1OLXijteXT/wnAAPI/3R94Asf3cUqu1xA3HyrznIOgopCQWb/B3EHhOmB+Tkn9E+T16L16FjFpIiw/O3ShDThC8UYcFZBPc74QftWjRQrxUJN/hWj/llFPEo0QyGcmoVBOhnTAeItrF0kqXY0k1EkKhuI+I5f5rr70myyQSYX0lkROPFvcJAyBjnjAnvoerr75awqNIpOV5JDgSikXpKdYRYuVtW0spPjxcWGtJrgzTEStK6PIWyoPkDNiKkki6dOkSKnB/48aNtjMDdZeyR1lJTcVCXElNJAWQWBAFzsXWPvTQQ92l8pPLpKZPP/3UPuSQQ9wlJR8ptML4zZo1sx3B5i4FY9999836ewtSGN8RkbsklhpI8KQBSbYhQembb76RhiZB9++IXElu9UtcSU0kXHHMg6IWUiWxhJqhKYmBuKsorUB/+tOf3HuFjVpIiw9CgqL8zgn/KdQwEJKKTJklL4SARZEkSdgT8aUcs6D7P+CAA/IyFpjQL295LL+oIFUSC5nh+fhjVeKBpCxn0u0uZRfOKy4GSUAFafFBQmSUsP90ok4pDhDvJoErCCpIlcRCa8swcUxhY0h5Tvv27SXAPAzEBNElpDxkYx/poHzUoEGDJJapUKAaQJTtYws1aS4VTWoqPvx0VCsP/DZ0klO8YPUNM6boKKQkFgKro7KQpQMhi5uCWnPUl6MunR+ogQe4bQJ3tkjBzz4Iqg8i1Mg+pXRUt27d8q63c2mQ1BbVRTHO8ypq1EJafEQ9AcE6qt6p4oXxJMyYooJUSSzU14z7Qkthe8CiSC1PasSRFZmJJ5980po2bZrc572SNenFlAQxUA8UMYQ7Oh2p+zBua8Q5EFfbpUuXXerq8Zi3sLJ5DbOO7E9aDO6///7SM5z1qYIWUZP6nniN7du3u0vxg9uQmXoUhLWi5yNqIc1PXn755bTlk/h9lrfOZJSx1cBvI+zvI+xvi8z+8kC75NTxNgjqndqVMN+hjkJKYgnbp5nBmrIcFKUPenvggQfcveyAzkYUsaeffOpgh6hDkGJ1pPvHpEmTpPg8IOQoVE9pkfr160sZEfrKk4xAlw7Kfpgey17MPhCNXbt2lRACyphQvoRSIhTAx0JKSROsng8++KA1Z84c6YVPX3q2IVmHovp0YKKECSEIFNrH4nvrrbdKF5KmTZvKewfKmtAHmqL69LCGp59+Wt4LXUTMurihtmpUQovBtjxiG1Fx5513SrctL3xv48ePlxIvUUKtQs4BBE+qhRQhFLVgUcqGkkF0+uH3/Nhjj1n333+/3Cd2ubzii/MsSgsm50/cFtLevXtLLU7Gbr8Y7xTQOKQ8YTh+vFP83tauXesulU2heqdovBAmXE4FqZJYwsZJkWU5dOhQ6YoU9GYEpRfEIO3lUgUyQd/Uv/vzn/9s1ahRQ1rHmR8xQu6iiy4SMYr47Nmzp3X66adLYXzWYVVF7KZi9oG7mnp5WDXZV6dOnUT0VqlSRTp/8F4Z6BCaDKSsf+ihh6SeHa/BwIpowcpL69LatWtLMWj2i3hle/P6WBawDFCrj/p8gEDltRG1tEA11tY4ido6ToxqWAjtYGJAUwE6a23btk2KWXPOMqkxxzEq6LLFhAfRTmtD6h1y7vJdI4jVYpp7aAtJnUosY7QG3rhxo9ynLibjRXngfAtrwfQDv/e4JzV0lWNSfPjhh1tXXXWVCPrS8HqngPHVe97j8fGKKu7zuTAkILhSSeedAu/k4ZZbbrE2bNjgLu3uReKY8RpmvEz1TvF4uslIqrEj194pjk+Y719HHSWx4K4NM0tHKPLjZ8Yc9Ia4MNDhY8aMGSLs6tWr567NjFdAUWjZXDBMqzpgG8QMA2e6LFbvPsy24G0/Z2CmTss5xOfAgQPF8gnsG1GaDgQqBaQ5Rgx6WPgQtrwWJUsQz1Q3YPBmvy1btpRizgjZuOE9RWmlKeuCVxb0veY90teaAdwk4XHRihp+G/369ZPvkM9B2AZihyLct912m7uVkmsGDx7s3tsJk73ywnfuFVvZBoHEuRUnTLIAKyTW5KOPPlq8ROl+p6neKcZo2ocydjHuctz5PXTo0EE6IvEbZYJ/++23i8cHI4IJgzJ4PVxM6gjfGj16tEz4xowZI5MKvEwYAehNn+pF2rx5sxgomCgyznLt8HqneL8jR44Ujxe984Exg+fyWM2aNeWY54N3ivCFMFZ8FaRKYmFgitIKkI5nnnlG3OpYGxF89JIvTRTxmBm4ea/m/WIhw10OxH0yQBnMNuk+m3cf4N3W3DevSfs5LAQMHoDrHVL3wUzXWAdwHdFVBCsy2+y9994yMJsELty9WPk++OADcf8DA3vcFydIZ8XIJuXNsseSg6XaC9YvLD1x0LZtW7HAeencufMukyolt+CNwGptIPynWrVq7lJ4omyrC0xU08W/+oHxhPOSupxBbhUqVHD3sANef9y4cWIYSA2BSfVO0f/dtECePXu2jHl169YVAUjMPeMck3dEL1ZYxCui0ovXw3XJJZfIfTxb9Jhnss914fjjj5eEV/aV6kXCaMDvn20QyoRFeb1TWDzpyoRxg7hSYFJ5xRVXyMSfxxij88E7xWf3XkP8ooJUSSxx/xAZxBhssDJhKfRaKzPBgMPsdv78+eICZybO4MlMnEFs+vTpEjPKoMYAyGwfNw4DFrP5VLe92Qcxp2y3evVq6+OPP5b4U6wAPIdB9YYbbpBYNKyYiF8GLwYxnocret68ebI/XLm81oIFC2TGi6UTdxjbIT55/N5775UwAi6UiFsudFgGCDnADYZlIKrkotLg+w/jNvILgrK8YA3xugnTWcSigou414KChZv3o+QXd9xxh3vPknEhGxx88MGRhmXgYeH8CgPjDDHWQW/vvfeeu4cd8PqIScZjPyEwZrz2eqcQqYQ0EZfK46V5nLzjPfeNVyjdtpm8SKV5p7C+IjA5PmaCz/hO2A20adNG3ne6/cYNn4HjFhQVpEpiKU+MXxgYTLAwBRmImaEj7rCKkaTEe2bwxHpJQhNuGC5IWAyYVROXxLa48RmEU2NWzT6YaZOwhMWWJCUstohMBgkSJMaOHSsCFAsAAphKALwXnocLnsENsAQgZtmeBAv6LCOOcesycFPJgBk6whRhbUITsAwzGCKKmbnnAj5HVJZZRDdWk/KCqDXHh2NP2EeccL4ayxCW76QU+08SiAvi0LGUEbudDTKJnmzBbyNsYXzEHBPYoDdibIHxl3OZMYl47EwWf693ChBz3LzeKeCzMA6CEapmWy+p69Jta16TcTidFyl1H8Y7BYwT9Npn7DfbcJ2YOXOm3Ed4Y13OB+8U30GYCY8KUiWxYJkzP+Z8hsE0E0YsZBMGRe9sngEXF5YfeK7Z1nvBYZaemkTGzDxspYNsQBxblG77sBagVAYMGCCDNxUMOL5xwnd07bXXyveH+0/JT7CMZtN6jjU8ynMt6pCAdDDhJtOeuEpiNlPDUVLxeqeYlDOBZmLerl07ef+45pmwcyMJDJG3bNkyEbqIP8SeF6+Ha+HCheLNQhxiWOA5eKrwTlHBhOz+VC8SYQ5YeYkZxaLKc4x3asuWLRJWQEzs3Llzrc8//9xaunSpGAaI6cfDhTeNz5wP3qmw3/8ejtLeKccVJUEQd0OAdzYsWdmAeKLjjjvO6t69u7umOBk1apQMqNlIzigNrH/czjjjDHdN9mDY5MJF8kAquPewamH5LnYI5Zg6daq7lF8gQCi9FaXrOtdwnrZu3Vq8H15wZQ8fPjyyCSOTK7wliKK4wJWdqbLKww8/LHHueIq8YD3MJNgQiLjbs31+eF8T4Umsq9/vgXwCJhNMtI1BgP0RX+o1XmTaL3kCeNxMDGpUcLypAx3U46OCVEksDRs2tCZPnhwqliUKVJDuIC5BSnxk8+bNxbKQbRg22ffjjz/urtkJIQ5c8FPje4sNLugIkrhDZ/zC94fYoNRZUsFaiFXPuHANxLjzO4xKkFLIHUGaL8c2kyAtNuISpCSTIZBJygsEglRRkkjbtm3tb775xl3KPT169LDvvfded6l4GTlypN2nTx93KTr69+9vOxdidym7/Pvf/7Zr1arlLu3KqlWr7DPOOMNdyszGjRvtu+++254wYYL95ptvyvPyiQcffNBesWKFuxScbdu22c5FyV3KP1q3bm0/8sgj7lIycUSYfdZZZ7lLO3GEgr19+3Z3Kfv069fPXrlypbuUe8aPH287ItxdKl6WLFli16hRw12KjrFjx9ozZ850l/yjMaRKYiGOxTnH3SXFQL07sqnJ0MwEM2liGwsZXFpRxrERLxYWah9iwcWdyo1YrzjqjwaBuDSSJpTkgdU6yrGROp869hYvJFeltpf2gwpSJbHogJgesutxK+NSzQQ18wimL2Si/v5JdAgDsYuUZMF9SLYz8WS4N4lJNRAjRhUFL1RYIOvWdIDh83mLT/MYzyHOzFwMiCMr68JA4h8xZ2znTQKjHqIpKQMmLk0pfPjtR1kSDcGr50rxQlkrM04FQQWpklgKIcM+DH6FBwNC6jHguWxHsH5ppCsLQxmlQgIBFeVFN2wBeazPPDc1fo+SXUCtwTlz5kjCDS1Z+b6IP6aIPokolStXlpJetLelDBDxYMTkUjSdrFssrZSQog82LWtPOukkSbSie41pOUnWNolXmTrQYEWnpBgZv0AmL+XCaEFL4XClsOH3HWUyF+NRlL89Jb+hXmuY+qcqSJXEYjoQJQk/wgPLWWrrO6CGKNshMihqD+lECnhd3dT3IxAeQcJrF4rlA0EaJWWVlckEJV/odJUOvr8pU6ZIH3Na/+HaX7lypXSVIWuV74+2gSRo0HqUbWigcOCBB0pJGc4BRCtikvMfUct9tqdpg5mg0FUGwcD7SNeBhs/GvoCe+6YcDi1mc1FoW8kufL9RClJqFpvycMpOMCKQ8MNYmokkhEtR7UAFqaJ4QLwlzW3vR3ika32HRZUOSwhVqg+Y7Nd0IiUVSrhQXB+rHq4YsnYLAVzjXACiAMEetnUoog+Rl44VK1bsUsiaItjUNcStT7kXoGqEudjzHsxn9LNNOjJ1oDG1ahGo5uJCIwTOE5ojUL2AG+9ZKSw4J6IcGxEk3lrHyg6Ia2cMzfT7hySES/Hdh5nwqCBVEgs//CS6jcoSHula3yEqPvzww5LadUaA+IFizbiTsZ6uWrVKrKSFAINiVElNHN+wFiA6WzGJMO5wA98bfbc5xkaU4q6nni6vZ77TsPc5Z2gWAJwn3nCO0p5HYhMdv0y8KgW5r7nmGmlFy+3MM8+U9UmD7+CJJ56QIusUT6fIOSEOa9eutXr06CGhDVFBpyBKFUVF1GKRMcqcR0mC64mfcKl0MeDAurLqYichXIrrDOdAUFSQKokFt1GUbqlckU40eO+na32HVZXBEAFhQJBkEine/dLekhZ8gKg1LfryHazJUbkNEbpeQRcEvg/CKQi76NOnj/Xoo49KgX3cqIRgsI5atdTQJb6T75NuL2vWrJHuLwhXiu5zn++Z+1hRCQXAek3GPut4jG3MfZLZuKDSVpGWrnSbIYwjXQcaLoC8HuITazytYHHtMxnJRg//fAdBwSSM3wfHC48CITKIUgQ6YTJeS7Yf+H78wsSEiUhUcP5GNVkDxEjSxl4/4VKQGgMOJEAyieF3N2PGDFlHYqmpkc3vj5Ac8H4vhRouxTgTyhjkXHQUJZE4F9FIa+0FJRt1SKnteMEFF9i9evWyP/nkE7tmzZp2z549bUeElNz/9ttv7QYNGth33XWXPWLECPvZZ5+V51IbzhGm9oABA+zKlSvbzkBqOwOcfcopp9hXXXWVPXToUNsRP7YjSuzZs2fbzgBpr1271nYEje2IEHku+y8vcdUh5fNFVYfUGWztyy+/3F3aFb91SMERfvY//vEPd2knfIc//viju5Q9HKEltXl/+umnwPvn3ON88Ush1yHt3bu3fdNNN7lLO+C4LVq0SO474rzMscUcZ86VBQsW2DfccIP7yA6++uor2xG17tLO75ztzTKwjTOZtJ0J427Hn32URqY6pK1atYp0bGSMSWIdUmeiaDsTSLnfvn1725k0yn32PXfuXNsRrbvU+axUqZLtTOrsLl262I7olHWjR4+2Bw4cKPcPPfRQ+QvmPr8bngdXXnmlPW3aNNn36aefXjKWhyWuOqTjxo2Ta0hQ1EKqJBaymKO0AuQCZtEkmJCAQqwRbl96IxPfae7juqevM1nZ9Ck3LvZu3bqJxYukGDKzSWLCtYKLmPvXXXed9fbbb1tHH3205YgtmdVXqFBByv8wUyfYnv0XClhHo/r+nbEzK2403HPp2h3yHZqwjGyC5QqrDH34g+6fc8+EfCQdXPSpoQgcN2fSJ/fNeZUpKZCSXsRzU96LEkj0TKcvOUlqWLmI5SYZjVqvhNNgEef3SvconssyiS2ZqiBgnSfJjN8ullyqH5QWl5iK8YpEBRbmpI29UFa4VKYYcLwO5ndeDOFSHAtvCTm/qCBVEgsuI4RDsZKutAsinQHVW3LIj0gh5gyXbyER9QVxw4YN7j0lSVAujQlYpkoIXjIlBU6YMEF+UyQV8pcqCYhJxCtVFLhYI2KY/BGnWrVqVREsc+fOtTp37mxVq1ZN9pOpCgKhN7QFRSDzHngNJo9+IeEvlEvVJ8Qbhw1pyWe4nphrSrr7mWLACR9iMmIwx4bxllwHtjfueO9+CzVcit9QmConKkgVJSb4gWLxIJasmG9cDM2AGyUM8FG+TpigfSX/QShiDQ5icUyFTmgkrxFrmHoOEtNLRQysXtOmTZPSXUwcvcks3qQj7qdWQUB8Eh9MchxjCpa4ICCUovxtEE+JlSxJ4BFh/CotTvu4447bLQYcDxMWbpLjiDclQRDRigeKyQSd2rCKM0FAtBIvzj45/4hXZVLDZIYJSaF0TmPsDWMh3cM5KaO/MihKDmjTpo01evTo3QqQ5wouQsxy02VRFhNcDAn8P/3009010YCViQtD06ZN3TXZg4sH1i6SFFIhWaFr165SP7SY4QJesWJFcVnnI7jIEQStWrVy1+xk0KBB8t0S2mLCFBB/CC0+E0ksCBPc5/Xr15fEMNy1lEjDFU9YDe74Fi1aSEIYohLBQrkshAmig0QVLGWsZ5KGix/RAdQOZv8scy7RyYsbLn2Wsbjee++9YjFFjGZKNOM99e7dW17DyyWXXCKvH9XYSDgBYQQcg3yAigUcX4RfHGAh9Lr3gXGPyQTnAh3QjPeKrllcEwijSPd9cI6wTTY8VIRdkSTFeR0lnOdYhTn/A4EgVZQkUrdu3bxKalLi5dRTT7VnzpzpLmUXEk+ykdSUZMpKanIutLZz4XaXsosjxNx7mSktqYnvl6SmOnXq2I6AtKdMmVKSpEHS39577y3nFp8hXVIgSYPz58+3+/XrZ69bt85+66235LF58+ZJgpIzWbKPPPJI2xHEtiN0JVnQEW/2p59+KolnJFVVr15dkgrZV9++fW1nMiuJLSTEOMLYPuyww+zzzjvPrl27tn3LLbfskiBlKC2piaSrqCBpMYlJTYVOXElN/GZmzJjhLvlHLaRKYsFygKWirLpvSjIhnouZOhasbMOw2bZtW3HLpeLHQoqlxhEy0vozLCSh4RLOppWL9441DRdx+/bt3bXhKM1CStwk1kReK4rOT1gF+Sx8/87kwF27K6VZSA1Yp7BekkCYCeL/KKmGNQzLOX9ZZ6xaJpaZdd4wjy1btkid4DDlkbDIcnzxMhCDSEIjpalSP2smC6kjzqxRo0ZFZiElDIEGHFF7QfyCVZCGIZdddpm7pjgh7p3Sbljoo4S4V8Je8A4EQWNIFUVJJMRvRSFGAUEaVEgQf2bAlVneeDAursQ7ZoI4Loq4+4U6i9OnT5dqDMTIIcayDcIJ0UQVB7o+RdWGFDGEy5u+/8RqEuMXBtyrpYlRSJcUyDrqIHsT61JjjstTJ5lOPg8++KD19NNPW6tXrxZBHCSOlPcaJVFWuAgDyWGIb+Jai/l28MEHS1Jd1FBVgMlQYLCQKkoSwd2mLvviBDcp7tKowKXbvHlzd2lX0rnscbcSQmLA1Yvr1uCIR/v77793l3ZAHUpeJ5Nbm+15HEzNSm9NU9y81L/0ghvdYN6DeR/UOkytlYk7OZV0vynvfg1elz3u23PPPRdvXMkNN3M24HPg5nYuuHJMOBZvv/32Lq/liCP5vjgvDKW57AsBzilqVJr6lunI5LLv1KlTpGPjoEGD7Ndff91dUooNwpluvvlmd8k/aiFVEguB43TBUYoPOupQmzUqnLFTEhf8YjotOQLI2rx5syS4YS0E1nk7u5D4gMsfl/mQIUPEtY+L1gtlf0howV07fvx4KRtEAl+tWrUkaQYLJ0kcvAZlglI7vnz88ceSGEM2+Nlnny2hLXSdwdqGO53MbToUkaDjCEl5TcoMUQuTmpqUG8IF7aeTDG47LJVYLL3wvul2g1ufblRYjPlMWCSxaJEUgcsb1x/Z5Vgh+U1jVcXCh/USCyNJR6zDAsb2dLwy79nA98V7pIQS1pskwLEiaYTvPihBzt0wRJ3Fr+Q3/DYPOOAAd8k/KkiVxEKWJyIg6sFXyT8QbAidKKE0i18QioglSrwgmMjSBrK2caE1a9ZM4u4o+0LsI+EGbM86zmNvDUM49dRTJf4QyJjGvd6zZ0+JmUREIuooN0OMJCKMeM0//elPItIRscSSIQbZhoLt1atXlxviF3c3orlRo0ZW7dq1RdyTTd6vXz8pZUSxd+IuEc6p+00VnUAReJ7DRcoLIQfE9dHEAdczGcCIReIdib8lxIHC4BQWR0AjkolHJdud90NZGWI2+ezcxyXJempgvvzyy+6r7AAB26VLF/ncCPFih5JDURJ1yTUlv6HqQ9D4UVBBqiQWrDhcjFMvTkryQeQhsKKEmMuwGHFGnBWWRoPp7MLjqbUnUzH74K+Jxcy0bbqOL1gXM5Ugo+4hVlm2ZZ+8R6ynWCiBkmoUcvfTSYaamVOnTpXPRSKYiZukzA2CmMdJQCOm1IhbYt2wsCC6eY9YP3k9jglxmlhFS4u/5H0BcZtYehGiJFpkw2pOMll5Oh2RjDR06NDdEo3iJKoYYQMTh3TWciX5mEmhWkgVJQVESap1SUk2tH3Eyhd1UgUuZb/wXrzCE+sRt0ydXcBYmMy2qXjXp9vW+5rpOr54twVjbQQKeZN0g4WV/bAdLvWZM2fK42TqYkUN0kkGwTlx4kTZjm5EWEXDFM/2A/vu0aOHhBkQwpDN8I2yksnKAnFNshlZ9pmgKDrnQlTwHqL8feCVGjZsmHqnihC8kkwow6CCVEk0WEiZqYfNslUKD6xxWPCiBte7X4iDxKpGqR2sRwzaS5cuTdvZBZFKUXYskriqceETgoBL3IC1kXJExH4uXLhQwgdwrROr+tFHH8nzaDd5zz33iOs7teMLggorIjGmWFR5by+88IK43NkPvxvc/7xfLJLEubKP++67TyoEkI3P5w/TSQYRO27cOHlfUbmO+dzE1Ab5jjJBBjvC2QhEShkZ66wRXF6Lqfd7SofJyvfCc8zkgNADwgu8Exhen/fhhddmW++kwi8I9NIszOWFiQuxrcXeHKIYwbNC6E8onJNZURLNa6+9JhnHSvJxRJ7do0cPdyk6yG5v2bKlu7Qr6bLswREV7r3dITPcEYbuUvbwvqYjcOwtW7a4S2Vj3g8VAAzszxHU7tIOMu3Xm2Wfj/jJsqe4/ZNPPikVAahC4Fxs7f33318y1KdMmWIff/zx9tixY+0LLrjAvu666+x7773XvvDCC+0BAwZIxQOKsZNx7ghWu0mTJrYj8GW/zgRE9keFADLeKZhfpUoV25lYSFH/Aw88UPbLMeR1HnvsMdsR/1Jwnu/l6quvths2bGhfeuml9oQJE2Sf6ciUZe9M2CKvQLJ8+XJ78ODB7pJSLNB0IXWM8ItaSJXEQ4YvMXZRFwNWcg9WOvpFR40zdgau5Zhah9ILFktTwzKbeF+TWFMSpfxi3o9pnQnszyRTGYLut5Ag4YpYYaoRkCTnTSarU6eOWDGpiOCIRqlOQLwq96lYQMwr4ReEQmARxWLIeeMFKycWV5LHsKKTYEazBOJ2KdzP/tmfN+mNEA/2xf4dUSttOoMSVf1XL1RvwFJPEppSHBAXffTRR+82RvhFBalSFPTv3196PyvJhfhEkmvCxi8FITUmVEkmTG4IpUBYUuwdTDIZ4twUgDeF8bnP5AJXuh94HsKfagMkb6WeU5mS3kpLSMsnqC7BZ1OKAyZlxO+HRQWpUhRw8aCGIpYOJXlgWSIuk7JKcaFZxMmHbHRKUVHChkQvwMrpvXnXpd5HbJr4UkSqSRoz27BvbtQTpYKBeZ6Z8GRKevO+RhjSVWKIAkqHvfbaa9b27dvdNUpSIdadczJ0/KiDClKlaKBlIRYGsj+V5IBLFbFAAk5cMPCWliWtJIOHHnpICvjvvffeUkbOm0xG4hmVBkgOIyGMmrIkTyIwuU9yGAlguP3x0LCMxZOkMyZPhBDRAIDkNibKiDYsTLjxSUi74YYbJBQiNekNl6ip1cp7CUOc2e+EHpBkpiQbqllQC7k87OEMrOGnWYpSgFB2hkxsYrKUwoZM7YcfflgyquOEuEDqZyJQUsFSQFxhPmQYE8vIMcp0rlN+iMx5ui2ZGqPZgnqbxF1SVSAfQShR1ooi/5nAool4wzUfNsaXuozE4WLdxJ2fWm4JS7s31hd3PJdlzjETHsB7YJug7wEB3Lt3791qnmJlpTQWQjsOMAJQuaFevXruGiVJMHEjLrm035If1EKqFB3UQ2RwHDBggLtGKURmzZolrWHjFqMGv3GCuYTkAjogZYIyTYhWjYdND4KQmp1hxSgg9IkvJQkpVYwCjyFCzQ3YzohRyHbSG2EEcdqiCJeiPS4NCpRksXz5cgltKa8YBRWkSlFC4DUJME2bNhXXm1I4YIHs1auXWOBGjBjhro0feolHDZYxLGXGxYqIoAtKKt46mAa2Kyv7HTGE2PFCVnSUXXyU3ENrWa/gjYMJEyZIh6rydDhT8gvqFlOjeNCgQe6a8qGCVClaiCmdMWOGzPCYwVOIXMlPvvrqK2vBggUST8d31q1bNykeniuwYEWZ5Yx7l3gs3MrDhw+X0mUPPvigXNApC7R48WLZjoL5FKbHykkCCSIU0UrfeY7X2LFjZTssGGeeeabELRKyQh97hD0Yqx2uY/rO0wuf2Ee6MSnJJGxZnvJCeA2TSeJplcKGkA8E6f333++uKT8aQ6ooDnSXmDZtmlzM6cd9/vnn72Y5Siq4a7HCYRXjxn3W0R3m/7d3/y5WXG8cx0eiGEUtFLQRtlpjIQH9A2TFIqgoEjTGH0U2aGcjIoiFREWwUUQQLC0VxCJgsTYKQbBTxB8gaKEkGhQExcJGwut4j9/L4n7R3bs7V/fzhmHuzpw558zsnTufOc9znsdCqBAtro2/a7m6yCDDfF3zi9c66rEWI3j28YMzMmM/lDHj16gcX8N79+6V+IUme6jHyKAsRPrDzcL/Rv7ztnEt5GU30WQ0vfIhFS5HFib+WUYhTKQxysT/2cxrmZRWrVpVZjG7rvv27SuxLM3MZho1kcZLFmHrWBEIdu/eXb7bLAT8SsXANIHGg0V2HcJVnRcvXiyidSJ+1t+CD+nXzlg+pFK3si5wR2gDaV3dyxMJERTa4/jx4+U3vNdubxGkIXRhlmxN28jcOTAwUNIP+syHy+QG4ohQMsPWSJZg2YRVFXEmMRBd9daqAs26ijMibO7cuR/L2Wdtv+M9zB1DFBN6yilT2zZiKO2iOIbqYXpVTvv6JBWh2bxGzKQJ5L+m7+rRtjrMEpczWxBuM3eta13q0Bf9IBaXLFlScrfrD+d1ArWWqYGvXSf90Y/qF1evi344jmCytk85OE8LUfv3338Xv0Zl9MUoJPPiVMQW/RL0d3h4eFIFqdnZAqGLn+szcWo0on42UUS+ef9r11tffHddN6KdECVMidDPEaRHjhxpNm7c2KxZs6bTg4kRQdo+YwlSFqFDhw61JkhhVrbfUJYO6WRDf+P548XYb9Dhw4ebDRs2dPb0jgjSEMbADGRmSyN0xBvfJ0LJJAXCjLiSiaSKSULPaCGBZvYqEUsIEoFGsIgYAo7wsra/1kegKQcCTj2EheOJDcfXMhZ1KacMoWx/LVPLWROO9tfjarn6tyV8Of7f8uXLojOaXglSWXgIUg9un4nQc+fOffzswUCoCxVk1rT88Pol5JA+/Pnnn0WQEs5M9Xv27CmCc9OmTc26deuKAGX+X7FiRRGkJogpd+HChfKdJmJWr17d6c2XE0HaPmMJUi8rIiv4/WgT31P3kImmmzdvnhK/7PD5eOaxWonU4UV4y5YtZXR7soggDSGEL8TP5s8//1zE4Gh6IUi9bIhDyZWkRhK4efNmcSsxYkpgaJvgIFiJY6P6RKZ4lsyh/EAJDqb4q1evlocKf1QPFX6i4mru3Lnzo3+qEQ8pLJntBwcHS/0TESz9LkiNGLtOO3bs6Gz59uDO4XvULUh9d72knD9/vrOlfbxg8Yv2gu4lidsIy06/4oWtLgYHrN2zLEI1+obrbF8diKiDCCxLLFTVQmTQwD7HWpRlRVPWYIL9BhdqG/azOLmvDFawStWBCPu1b3DE/ee3wKCGMnVAQhlWFW2417XN0uL3irXPva8NljpWM6PXgt33ynLy/4ggDSGEL6T+iHObGE2vRkg/Fw8YDzgPj4qfdQ8sI/UeclVYekAx03ogjWWuZQ0w6cUDbiL0uyDlpuKB/C1bCXwPTCLqTgbC4sNc/6nR/bbxUnXjxo3m8ePHRXSxHvkO8yknVok5Qsn3mHuPianEExcmIoz4IvSIOIt7g7XJ/eF/TcCxbHWXUSdx5vuqzmrd0p79hKA23RdPnjwpn7kVcWGqFjBoXz1GFd2LXJi0xVXKveQ3Q1v6TjRygyIUWdsIRSjnflUPWEAcr9+1HX3yf3Ve+ljPuVrSoJ4qYN3n9tnWbR3zWT22Vyubtus2fZ/qeyOCNIQQxoGZ/qdPny4PjG6mWpD2K5MlSD3Y+crWCVh8YAkJvsajUeZT26czRktHRkaaP/74o7OlPyHK+Lj731YxRyARqcScbTUxBXFGgNlexVsVX7B2vH1ezmqZuhBgsHY/E3i2q8Nn22s5a6Iw9J4I0hBCGAcHDx4sEzL4v3VjBjx/Tf6f0xmjVtwGeilIjeD89NNPxbf1119/LWZe7gwiDozOAsQH3GxyfrHhf4igYOSMu0YI/UQEaQghjAPxP5kMh4aGOls+INai0dM2ZzD3Ax4tRGIvfRXVJVIAEywzI/i/MrGODiFEjAqZxY+Sn2z4AD9j/sK+uyH0ExGkIYQwDsxi/+eff4p5PkwNXgIOHDjQrF+/vohNPnZ89/gemgxTMSq7bNmy4q9n0pLYreFD8gOTuYyShtBvJFNTCCGMAwH8mYXD1CFsFR9AUQJMShJPk/m5W4zCqKkQWRBlgB9iaEq0hYwWh34lgjSEEMYBMzFxJDRTmBp++OGHEofVDGczlYWx+vHHHz9OboHt/Fe3bdtWAv/zOxUaKzQlTbIYtCH0IxGkIYQwTvhIfioWaZgcCE3xUyWskL6Qn66MZAK9V4QzMulJ0oqtW7eWbUZMzcSezty5c6fMLpeCN4R+JII0hBDGiVnkhM7du3c7W8JkQljygxT6RyzN27dvl5Fq4YFgSoQ4lnxHr1+/XkZSLYTsp9K8Tidk4KoCPYR+JII0hBAmgFR6Z8+e7fwVJhOxKY2MVqSalLd/7dq15W/mfBOeZK6qi9BcOHXqVIlVOR25cuVKCdSe0dHQz0SQhhDCBCCKCCK55cPkIjA5P8i9e/c2ly5davbv318y65w8ebK5du1aeTn466+/SjYiCM5vRBXM/PK619SO0wXX4PLly5OagzyEXpCwTyGE0ANkbWI+TsDxyYMpXlpGoZ4ePXpUzPHSnIax2b59exnBX7hwYWdLCP1JBGkIIfQI4YjkvP7tt986W0Joj99//705evRos3Tp0s6WEPqXmOxDCKFH8F+URejEiROdLSFMPSIPCIAvFmvEaPhayAhpCCH0GDnWzQgfHh4uIjWEqULYK7Fxjx071syfP7+zNYT+J4I0hBAmgXfv3jVnzpxpHj58WIKRm/g03fPbh8nh7du3xV1kZGSkGRoaanbt2tXZE8LXQwRpCCFMIvLdC7tz69atMiN8cHCwGRgYKJNxZHoSrFwQd+ktTdixmBkuRNH333/ffPfdd2V2uZ/qGTNmlLV0mWaL2z579uyyrvvqWoYiotj+mTNnljKoP/nv378v+63nzJlT9neXseiDCUSOVw+UqXVAXy36qpz2LeqFtb46Rjv2OSfUdur5uBazZs0q+2pfaj36qpw6HF/bqX2pfbWttoPa39HtWFDLfaod54PuMhaxZ/XBOdd93WUcX6+987FP+9b2+1yvfb1ulVrG+eirdl6/ft0sXry4LOp2nkJgiSYgBuvTp09LKttffvmlmTdvXqemEL4uIkhDCGGKuH//fvPgwYMiUgVrf/78eREdQvMQOVJjEqn22U60CgLfLbCIvzdv3pTJU8TOokWLigjx2c85MeNYM9JfvXpVRPCCBQtKvYQPoWPh66pdwnXJkiWlDQsBZ5tFO//++2/pg3YILIt21EFUqYNg0lf9ILD0xf4qntThb7Ew7a9CrrZDXL18+bL0U39rO9CGc37x4kUZCdTXer7d7bh+z549KwKOcKvn6+8qmp1Pbcf5VGFaBWI9n9oOk7f96nFdnYvF/885aMc104alWyzWa1/Px3V1zv432nE+zl0d2tFGFc/OxaKv2nGO6lGm9t9Ljeu5fPnyZuXKleVahfA1E0EaQgghhBBaJbPsQwghhBBCq0SQhhBCCCGEVokgDSGEEEIIrRJBGkIIIYQQWiWCNIQQQgghtEoEaQghhBBCaJUI0hBCCCGE0CoRpCGEEEIIoVUiSEMIIYQQQqtEkIYQQgghhFaJIA0hhBBCCK0SQRpCCCGEEFolgjSEEEIIIbRKBGkIIYQQQmiVCNIQQgghhNAqEaQhhBBCCKFVIkhDCCGEEEKrRJCGEEIIIYRWiSANIYQQQggt0jT/AZovIWQLE9YBAAAAAElFTkSuQmCC;" vertex="1" parent="1">
                    <mxGeometry x="10" y="90" width="676" height="404" as="geometry"/>
                </mxCell>
                <mxCell id="6" value="上の図は、スケジューラの概略図&lt;br&gt;JobAgentやStateAgent等の名前がついているが、システム図としての意味合いが強く、スケジューラへの情報登録等のI/Fも含まれている&lt;br&gt;&lt;br&gt;本論文も、行動の選択肢は、SPT, LPT, FIFO等の一般的な生産工程計画に使用されるルールのどれを選ぶかにあたる&lt;br&gt;&lt;br&gt;DRLではなく、シンプルなQ-Learningでの実現を試みている.&lt;br&gt;&lt;br&gt;次元の呪いを避けるために、&lt;br&gt;・遅延＋過剰に早い完了に対する罰&lt;br&gt;・平均デリバリー項&lt;br&gt;・相対機械負荷&lt;br&gt;・機械使用率&lt;br&gt;を状態の特徴量として使用している&lt;br&gt;&lt;br&gt;" style="text;html=1;strokeColor=none;fillColor=none;align=left;verticalAlign=top;whiteSpace=wrap;rounded=0;" vertex="1" parent="1">
                    <mxGeometry y="510" width="760" height="210" as="geometry"/>
                </mxCell>
            </root>
        </mxGraphModel>
    </diagram>
</mxfile>